<svg width="196" height="187" viewBox="0 0 196 187" fill="none" xmlns="http://www.w3.org/2000/svg">
<g clip-path="url(#clip0_1099_991)">
<path d="M137.421 8.90479H52.5482C31.7235 8.90479 14.8418 25.4739 14.8418 45.9129V129.214C14.8418 149.653 31.7235 166.222 52.5482 166.222H137.421C158.246 166.222 175.128 149.653 175.128 129.214V45.9129C175.128 25.4739 158.246 8.90479 137.421 8.90479Z" fill="white"/>
<path d="M46.312 29.6826H41.0191L48.6465 35.1502C48.9953 34.9164 49.3478 34.673 49.7021 34.4226C48.8095 32.7351 47.6896 31.1658 46.312 29.6826ZM152.747 80.3648C149.154 79.4929 145.677 78.2192 142.055 76.4326C143.033 83.6231 142.903 90.2222 141.663 96.4961C140.335 103.232 137.904 109.055 134.437 113.804C130.733 118.879 125.732 122.897 119.571 125.749C117.053 126.915 114.464 128.14 111.912 129.517C109.941 130.579 107.993 131.731 106.113 133.017L92.0157 157.118L86.1185 147.034C85.099 149.215 84.1988 151.535 83.4009 154.026C83.1055 154.954 82.825 155.899 82.5653 156.836C82.0841 158.572 81.6481 160.381 81.2314 162.365C80.9982 163.476 80.767 164.587 80.5282 165.743L80.4864 165.94L80.2798 166.935L92.0157 187L154.183 80.7127L152.747 80.3648ZM52.3495 89.3002C52.2585 89.3433 52.1675 89.3882 52.0765 89.4331C50.5456 90.1979 49.7607 91.0212 49.3705 92.2761C49.0068 93.4396 48.4835 94.4776 47.9795 95.4803L47.8146 95.8098C47.5382 96.3577 47.0245 97.3791 46.0845 98.0824C45.6563 98.4002 44.5211 99.1392 43.2308 99.1392C42.8667 99.1392 42.5161 99.0814 42.1886 98.9632L42.1826 98.9613L42.177 98.9595C41.6331 98.7651 41.1915 98.4267 40.8393 98.0224C40.6573 98.2002 40.4659 98.3667 40.263 98.518L57.8185 128.535C57.8241 127.412 57.8827 126.296 57.9946 125.181C58.1766 123.376 58.5045 121.557 58.9649 119.779C59.0805 119.328 59.2073 118.869 59.342 118.419C60.3275 115.117 61.7204 111.833 63.5639 108.473L52.3495 89.3002ZM39.1148 44.6224L37.8223 43.2494L36.0067 41.3247L34.5381 39.7646L32.7002 37.8157L31.2316 36.2556L29.416 34.3328L27.9437 32.7708L26.13 30.8443L25.0348 29.6826H0L26.4105 74.8372C27.6896 73.0304 28.9971 71.2066 30.3217 69.3847C31.0816 68.3408 31.8721 67.312 32.6356 66.3149C33.8749 64.6988 35.0499 63.1634 36.1224 61.5565L26.2173 44.6224H39.1148ZM129.628 29.6826C130.026 30.0022 130.418 30.3336 130.805 30.6738C134.542 33.9716 137.362 37.9015 140.088 41.7025C140.773 42.6566 141.498 43.6386 142.275 44.6224H157.814L152.266 54.108C152.351 54.3005 152.415 54.5119 152.457 54.7383C152.463 54.7682 152.465 54.7814 152.467 54.7906L153.427 58.5803L150.137 57.7463L145.502 65.6717C147.177 68.4119 149.183 71.2195 151.682 73.6644C152.26 74.2293 152.939 74.7794 153.655 75.363C154.036 75.6716 154.43 75.9915 154.841 76.3373L156.115 77.4128L184.032 29.6826H129.628Z" fill="#368DE5"/>
<path d="M33.5847 26.2234L30.6482 31.3074L30.9115 31.5894L32.0553 32.8171L35.1911 27.3889L33.5847 26.2234ZM39.9204 30.8222L36.1976 37.2679L37.4541 38.6177L37.5933 38.7665L41.5138 31.9788L39.9204 30.8222ZM152.186 77.1817C150.998 76.1664 149.897 75.3392 148.926 74.3802C146.667 72.1447 144.788 69.6345 143.112 66.9814C142.105 65.3906 141.174 63.7491 140.279 62.0851C138.823 59.3739 137.56 56.5573 136.172 53.8102C135.073 51.6405 133.911 49.5027 132.708 47.2161C133.634 47.658 134.56 48.0303 135.418 48.5248C138.796 50.4654 142.165 52.4245 145.952 53.5056C146.964 53.7932 147.992 54.0319 149.082 54.3121C149.028 54.0996 149.034 54.0001 148.992 53.9738C144.62 51.283 141.291 47.5714 138.298 43.5252C137.91 43.0026 137.53 42.4722 137.152 41.9403C134.467 38.1514 131.781 34.3702 128.288 31.2471C127.144 30.2263 125.959 29.3143 124.729 28.5078C120.394 25.6612 115.526 24.1248 110.166 23.8239C109.196 23.7695 108.221 23.7524 107.248 23.7524C105.61 23.7524 103.973 23.8013 102.346 23.8013C103.787 22.3404 106.886 21.2989 111.394 20.6256C110.166 20.3473 108.942 20.0449 107.708 19.7947C102.762 18.7906 97.85 18.2772 92.9778 18.2772C84.8509 18.2772 76.8315 19.7062 68.9228 22.6713C68.765 22.7316 68.541 22.7694 68.334 22.7694C68.1122 22.7694 67.907 22.7261 67.8185 22.6261C64.8086 19.1666 60.8978 17.102 56.6762 15.6693C53.3712 14.5467 49.9303 13.825 46.5497 12.93C46.5086 12.9185 46.4653 12.9111 46.4182 12.9111C46.2979 12.9111 46.1531 12.9581 45.9309 13.1066C46.9955 14.1277 48.1113 15.096 49.1045 16.1808C50.1317 17.2997 51.1115 18.4785 51.9733 19.7288C52.8009 20.9321 53.4482 22.2579 54.0651 23.6418C49.891 21.7989 45.5376 21.4773 41.0587 21.4155C44.123 23.4234 46.8526 25.7137 49.0311 28.5078C50.3235 30.1622 51.4222 31.9936 52.2799 34.0452C51.0101 34.942 49.7988 35.8481 48.5175 36.6472C48.482 36.6698 48.4331 36.6812 48.3764 36.6812C48.1187 36.6812 47.6936 36.461 47.4432 36.2826L43.0377 33.0862L38.9272 40.2011L39.2546 40.5527L40.7162 42.1224L41.5497 43.0174C41.7208 43.1999 41.8412 43.3635 41.9034 43.5252C42.0141 43.8017 41.9615 44.08 41.7208 44.4635C41.1394 45.3884 40.6636 46.387 40.2177 47.3893C39.5404 48.9235 39.4671 50.4709 39.8978 52.1443C40.748 55.4591 39.8904 58.5955 38.1125 61.3689C37.8022 61.85 37.4845 62.3256 37.1553 62.7979C35.5129 65.1726 33.6862 67.4289 31.9987 69.7792C30.4845 71.8848 28.987 74.0042 27.5064 76.1342C26.9269 76.9674 26.3496 77.8039 25.7756 78.6407C24.5906 80.3688 24.5528 82.2491 25.0987 84.2418C25.362 85.2026 25.5275 86.2971 25.3394 87.2524C24.8821 89.5479 25.4879 91.5055 26.9721 93.1599C29.158 95.595 31.9009 96.7342 35.0275 96.7342C35.4622 96.7342 35.904 96.7116 36.3517 96.6687C37.3245 96.5743 38.137 96.2286 38.7787 95.6475C39.2679 95.2038 39.6589 94.6227 39.9448 93.9102C40.4529 92.6543 41.0587 91.4377 41.7471 90.3152C41.7471 91.6954 41.6645 93.0792 41.7886 94.4461C41.8375 94.9932 42.2345 95.7904 42.667 95.9484C42.7403 95.9747 42.8232 95.9858 42.9118 95.9858C43.3576 95.9858 43.952 95.6834 44.3375 95.3936C44.7911 95.0516 45.1014 94.4705 45.3647 93.9402C45.882 92.8931 46.4293 91.8438 46.7719 90.7364C47.404 88.6833 48.7678 87.4271 50.6357 86.4814C50.6864 86.4551 50.7394 86.4289 50.7901 86.4041C53.3956 85.1068 56.0385 84.321 58.9695 84.321C59.2462 84.321 59.5243 84.3266 59.8046 84.3417C60.019 84.3528 60.2297 84.3565 60.4386 84.3565C65.4407 84.3565 68.7632 81.3145 71.3009 77.2398C72.9732 74.5568 73.8723 71.5936 73.9438 68.416C74.0116 68.4123 74.0793 68.3953 74.1227 68.3953C74.143 68.3953 74.1582 68.399 74.1678 68.4083C76.8426 71.3493 79.0419 74.5812 80.0406 78.4864C81.3145 83.4712 79.8077 87.8801 76.9444 91.8982C74.9766 94.6641 72.8207 97.302 70.8039 100.036C70.5088 100.437 70.217 100.837 69.9293 101.243C69.239 102.214 68.5673 103.193 67.9203 104.186C66.6713 106.104 65.5122 108.069 64.4776 110.099C63.1344 112.735 62.0002 115.478 61.1499 118.365C61.0237 118.791 60.907 119.218 60.7981 119.647C60.3615 121.35 60.0642 123.049 59.8968 124.733C59.6391 127.313 59.6842 129.87 60.0116 132.405C60.4745 136.024 61.5073 139.6 63.0385 143.139C66.5243 151.192 71.679 158.151 77.2944 164.805C77.3373 164.856 77.411 164.882 77.6047 165.002C77.7154 164.468 77.8228 163.942 77.9284 163.423C78.0672 162.744 78.2046 162.075 78.3438 161.405C78.7427 159.484 79.1885 157.581 79.704 155.705C79.9691 154.727 80.2554 153.757 80.5579 152.794C81.5119 149.787 82.6576 146.85 84.0685 144.015C84.8339 142.471 85.6767 140.96 86.6099 139.478C87.0088 138.844 87.4228 138.222 87.8497 137.613C88.2878 136.989 88.7396 136.379 89.2058 135.777C91.7454 132.483 94.6727 129.528 97.7578 126.713C101.842 122.988 106.015 119.357 109.999 115.531C113.742 111.932 116.53 107.63 118.441 102.783C118.517 102.593 118.615 102.413 118.701 102.23C118.793 102.251 118.885 102.275 118.976 102.296C118.777 103.391 118.648 104.505 118.366 105.577C117.458 109.033 115.556 111.983 113.479 114.817C110.778 118.5 107.945 122.091 105.296 125.814C104.019 127.61 103.031 129.614 101.887 131.568C102.13 131.645 102.23 131.696 102.273 131.696C102.28 131.696 102.286 131.696 102.291 131.692C104.08 130.344 105.945 129.129 107.862 128.005C111.043 126.138 114.361 124.521 117.702 122.956C129.578 117.389 135.89 107.749 138.332 95.2208C139.654 88.4257 139.56 81.6361 138.561 74.8577C138.412 73.8328 138.239 72.8064 138.049 71.7816C138.025 71.6461 138.006 71.5106 137.948 71.1631C138.636 71.5691 139.325 71.9622 140.017 72.3382C143.883 74.4535 147.841 76.1157 152.186 77.1817ZM46.6626 53.3779L47.6258 49.9483L51.9151 48.4797L53.1397 50.9277L46.6626 53.3779ZM36.732 28.5078L36.7168 28.4963L33.3911 34.2517L34.1717 35.0904L34.8619 35.8333L38.3947 29.7148L36.732 28.5078ZM30.5956 24.0533L28.0312 28.4926L28.0445 28.5078L29.3125 29.871L32.0591 25.1156L30.5956 24.0533Z" fill="black"/>
<path d="M29.0722 22.9472L26.6982 27.0593L26.1883 26.5122L25.2832 25.5421C20.6895 20.6025 16.0977 15.6632 11.5054 10.722C11.2721 10.4718 11.054 10.2049 10.8281 9.94548C10.8566 9.94141 10.8848 9.94141 10.9111 9.94141C11.1499 9.94141 11.2799 10.0317 11.4058 10.1239C16.2858 13.6663 21.1654 17.2088 26.0435 20.7494V20.7472L29.0722 22.9472Z" fill="#368DE5"/>
</g>
<defs>
<clipPath id="clip0_1099_991">
<rect width="195.905" height="187" fill="white"/>
</clipPath>
</defs>
</svg>
