<svg width="51" height="31" viewBox="0 0 51 31" fill="none" xmlns="http://www.w3.org/2000/svg">
<path d="M49.7906 12.7968C50.1836 12.6658 50.3959 12.2411 50.265 11.8481C50.134 11.4552 49.7092 11.2428 49.3163 11.3738L49.7906 12.7968ZM26.4203 11.347L26.8892 10.7616L26.4203 11.347ZM21.6214 3.34886L20.8975 3.15263L21.6214 3.34886ZM35.6284 4.23071L35.0576 4.71716L35.6284 4.23071ZM31.4448 19.1401L31.9254 19.7158L31.4448 19.1401ZM9.56263 26.359L9.58119 25.6092L9.56263 26.359ZM0.457031 22.4214L4.53672 30.0605L9.11255 22.7078L0.457031 22.4214ZM49.3163 11.3738C41.5959 13.9473 33.5153 16.0687 26.8892 10.7616L25.9514 11.9324C33.2903 17.8103 42.1724 15.3362 49.7906 12.7968L49.3163 11.3738ZM26.8892 10.7616C25.9862 10.0384 24.647 8.79599 23.6364 7.4094C22.5923 5.97705 22.057 4.6085 22.3453 3.54509L20.8975 3.15263C20.4157 4.93005 21.3441 6.81114 22.4242 8.29294C23.5376 9.82051 24.983 11.1567 25.9514 11.9324L26.8892 10.7616ZM22.3453 3.54509C22.5846 2.66238 23.2349 2.11308 24.2724 1.82859C25.3373 1.53655 26.7315 1.55575 28.2194 1.8086C29.6956 2.05947 31.2003 2.52938 32.4545 3.08011C33.7368 3.64321 34.6572 4.24727 35.0576 4.71716L36.1993 3.74425C35.5706 3.0065 34.3895 2.29156 33.0576 1.70669C31.6975 1.10945 30.075 0.602428 28.4707 0.329799C26.8781 0.059149 25.2385 0.00827515 23.8757 0.381994C22.4854 0.763252 21.3142 1.61553 20.8975 3.15263L22.3453 3.54509ZM35.0576 4.71716C36.827 6.79346 36.7874 9.4071 35.763 12.0086C34.7361 14.6162 32.7651 17.0608 30.9641 18.5644L31.9254 19.7158C33.8868 18.0784 36.0254 15.4361 37.1587 12.5582C38.2944 9.67414 38.4655 6.40359 36.1993 3.74425L35.0576 4.71716ZM30.9641 18.5644C25.2232 23.3572 17.0442 25.7939 9.58119 25.6092L9.54407 27.1087C17.3157 27.3011 25.8652 24.7753 31.9254 19.7158L30.9641 18.5644ZM9.58119 25.6092C8.59865 25.5849 7.46415 25.484 6.33833 25.253L6.03683 26.7224C7.26748 26.9749 8.49286 27.0827 9.54407 27.1087L9.58119 25.6092Z" fill="#368DE5"/>
</svg>
