<svg width="69" height="68" viewBox="0 0 69 68" fill="none" xmlns="http://www.w3.org/2000/svg">
<g clip-path="url(#clip0_178_428)" filter="url(#filter0_d_178_428)">
<path d="M29.5829 19.2317C30.8605 22.2117 32.0251 24.9229 33.1876 27.6362C33.3049 27.612 33.4201 27.5899 33.5374 27.5657C33.4156 25.8178 33.2938 24.0699 33.1676 22.247H35.9021C35.7914 24.0258 35.6829 25.7803 35.5766 27.5348C35.6807 27.5547 35.7848 27.5723 35.8888 27.5922C36.9096 24.9031 37.9303 22.214 38.9444 19.5447C44.668 19.6549 49.7915 24.7135 50.0749 30.2702C50.179 32.3135 49.5347 33.7991 48.1265 35.2363C40.016 43.4975 26.4853 42.7371 19.4133 33.5809C18.8708 32.88 18.5276 32.1857 18.6206 31.2731C18.7225 30.2901 18.6937 29.2938 18.7978 28.3107C19.1543 24.8964 20.9787 22.5093 24.114 21.178C25.8609 20.4352 27.6965 19.8952 29.5874 19.2295L29.5829 19.2317Z" fill="#368DE5"/>
<path d="M32.9056 46.9096C26.3185 46.3453 20.9447 43.7245 16.4765 38.9657C15.4802 39.757 14.4882 40.502 13.5583 41.3154C13.3789 41.4719 13.3701 41.9127 13.4055 42.2081C13.6801 44.5004 12.5221 46.5128 10.4341 47.3173C8.43252 48.0888 6.17851 47.4298 4.91201 45.6973C3.64994 43.9736 3.70308 41.6129 5.03822 39.9598C6.43978 38.2251 8.758 37.6785 10.8194 38.7144C11.4526 39.0318 11.8047 38.8864 12.2697 38.5072C13.8063 37.2553 15.3695 36.0341 16.926 34.7998C25.4483 46.9426 43.3276 46.8434 51.8543 34.7998C53.3799 36.0077 54.9232 37.1847 56.4133 38.4279C57.0421 38.9525 57.5071 39.109 58.3263 38.6681C60.1286 37.6961 62.4004 38.2207 63.7776 39.735C65.1791 41.2757 65.4005 43.5857 64.32 45.3644C63.2329 47.1564 61.1184 48.0073 59.0592 47.4849C57.0908 46.9845 55.4833 45.1815 55.6162 43.1603C55.7048 41.8025 55.1911 41.0685 54.1726 40.4116C53.557 40.0149 53.0146 39.5101 52.3304 38.9701C50.1716 41.247 47.7537 43.1338 44.9462 44.5026C42.132 45.8736 39.1517 46.6318 35.9036 46.914C35.9036 48.1086 35.8615 49.2747 35.939 50.4319C35.9545 50.6743 36.3796 50.9432 36.6697 51.1085C38.4897 52.1423 39.4861 54.071 39.1606 55.9952C38.8174 58.0164 37.3494 59.5197 35.3257 59.9164C33.1624 60.3418 30.9771 59.1648 30.1135 57.1127C29.2279 55.0121 29.8988 52.5721 31.8561 51.4105C32.7285 50.8925 32.9942 50.3194 32.9189 49.3937C32.8547 48.6002 32.9056 47.7979 32.9056 46.9118V46.9096Z" fill="#368DE5"/>
<path d="M34.2854 0.00020296C35.9371 -0.0262472 37.3962 0.280134 38.8 0.873058C40.7219 1.6842 41.8223 3.54453 41.6386 5.61425C41.55 6.62377 41.2666 7.60022 41.1714 8.60753C41.1315 9.03294 41.1625 9.11449 41.5744 9.20486C41.9973 9.29744 42.2585 9.60602 42.2851 10.0954C42.3316 10.9351 42.2187 11.7661 42.0238 12.5817C41.9109 13.06 41.6054 13.4303 41.2179 13.7256C40.7396 14.0871 40.4806 14.5632 40.3056 15.1385C39.7233 17.0495 38.541 18.4778 36.6944 19.3132C36.0102 19.624 35.3083 19.9194 34.5311 19.8665C32.6314 19.7364 31.1258 18.8548 29.939 17.4066C29.2614 16.5823 28.8452 15.6212 28.5662 14.6007C28.4776 14.2811 28.3182 14.0474 28.0304 13.8711C27.4525 13.5206 27.1336 12.9784 26.9941 12.3282C26.8458 11.6339 26.7262 10.9373 26.7683 10.2188C26.8059 9.57957 27.0406 9.27319 27.6628 9.18062C27.9573 9.13653 28.0503 8.98224 28.0259 8.72215C28.0016 8.47528 27.9662 8.2262 27.9197 7.98154C27.6827 6.77365 27.6296 5.55474 27.7558 4.33142C27.8422 3.50044 28.1167 2.78188 29.0002 2.44464C29.35 2.31018 29.6755 2.07213 29.857 1.7371C30.4748 0.593128 31.5243 0.222825 32.7199 0.086166C33.2823 0.0222448 33.8447 -0.00640958 34.2831 -0.00200122L34.2854 0.00020296Z" fill="#368DE5"/>
<path d="M50.8042 2.01905C52.4736 2.01905 54.1431 2.01684 55.8126 2.01905C57.1544 2.02125 57.9005 2.76406 57.9028 4.09979C57.9028 7.10409 57.9072 10.1062 57.9028 13.1105C57.9005 14.3316 57.13 15.0832 55.9034 15.0854C55.1129 15.0854 54.3203 15.0965 53.5298 15.0788C53.2043 15.0722 52.9674 15.1824 52.7438 15.4072C51.5171 16.6416 50.2838 17.8671 49.0528 19.097C49.0173 19.1323 48.9864 19.1698 48.9509 19.2028C48.7871 19.3593 48.59 19.5246 48.3686 19.4453C48.114 19.3549 48.1073 19.086 48.1051 18.8458C48.1051 17.726 48.0918 16.6063 48.1029 15.4844C48.1051 15.178 48.0011 15.0766 47.6955 15.081C46.4091 15.0942 45.1226 15.081 43.8384 15.092C43.5285 15.0942 43.4222 15.0347 43.5993 14.7306C43.6923 14.5719 43.7853 14.3977 43.8119 14.2214C43.8827 13.7497 44.1573 13.6858 44.5868 13.6946C46.0814 13.7232 47.5781 13.7144 49.0749 13.699C49.4048 13.6946 49.5067 13.8004 49.4978 14.12C49.4779 14.8342 49.4868 15.5483 49.489 16.2625C49.489 16.3528 49.4403 16.4807 49.5487 16.5292C49.6572 16.5777 49.7237 16.4608 49.7879 16.3969C50.5606 15.6343 51.3356 14.8738 52.0928 14.0958C52.3607 13.818 52.6441 13.6902 53.036 13.7012C53.9638 13.7254 54.8915 13.71 55.817 13.7078C56.3794 13.7078 56.5101 13.5712 56.5123 13.0025C56.5123 10.0489 56.5123 7.09307 56.5123 4.13947C56.5123 3.53111 56.3861 3.40768 55.7705 3.40768C52.4316 3.40768 49.0926 3.40548 45.7559 3.41429C45.4614 3.41429 45.2821 3.38123 45.3153 3.03077C45.3308 2.86325 45.2931 2.68691 45.271 2.51719C45.2068 2.02345 45.2046 2.02125 45.6895 2.02125C47.3966 2.02125 49.1015 2.02125 50.8086 2.02125L50.8042 2.01905Z" fill="#368DE5"/>
<path d="M47.3829 6.62582C48.3461 6.63463 49.1277 7.42593 49.1099 8.37373C49.0922 9.33255 48.2996 10.104 47.3453 10.093C46.391 10.082 45.616 9.29067 45.6271 8.33185C45.6381 7.35981 46.4042 6.6148 47.3851 6.62361L47.3829 6.62582Z" fill="#368DE5"/>
<path d="M51.3457 8.33842C51.3479 7.37519 52.1229 6.62136 53.0993 6.62797C54.0647 6.63459 54.8419 7.41927 54.8264 8.37148C54.8109 9.32809 54.0182 10.1018 53.0639 10.0907C52.0985 10.0775 51.3413 9.30605 51.3457 8.33842Z" fill="#368DE5"/>
</g>
<defs>
<filter id="filter0_d_178_428" x="0" y="0" width="69" height="68" filterUnits="userSpaceOnUse" color-interpolation-filters="sRGB">
<feFlood flood-opacity="0" result="BackgroundImageFix"/>
<feColorMatrix in="SourceAlpha" type="matrix" values="0 0 0 0 0 0 0 0 0 0 0 0 0 0 0 0 0 0 127 0" result="hardAlpha"/>
<feOffset dy="4"/>
<feGaussianBlur stdDeviation="2"/>
<feComposite in2="hardAlpha" operator="out"/>
<feColorMatrix type="matrix" values="0 0 0 0 0 0 0 0 0 0 0 0 0 0 0 0 0 0 0.25 0"/>
<feBlend mode="normal" in2="BackgroundImageFix" result="effect1_dropShadow_178_428"/>
<feBlend mode="normal" in="SourceGraphic" in2="effect1_dropShadow_178_428" result="shape"/>
</filter>
<clipPath id="clip0_178_428">
<rect width="61" height="60" fill="white" transform="translate(4)"/>
</clipPath>
</defs>
</svg>
