<svg width="31" height="29" viewBox="0 0 31 29" fill="none" xmlns="http://www.w3.org/2000/svg">
<rect width="31" height="29" rx="3" fill="#E3F0FF"/>
<g clip-path="url(#clip0_126_1937)">
<path d="M10.2853 15V11.2429C10.2965 10.5043 10.4532 9.77526 10.7466 9.09743C11.04 8.41959 11.4643 7.80632 11.9952 7.29274C12.526 6.77916 13.1529 6.37537 13.8401 6.10451C14.5272 5.83365 15.2611 5.70104 15.9996 5.71428C16.7381 5.70104 17.4719 5.83365 18.1591 6.10451C18.8462 6.37537 19.4732 6.77916 20.004 7.29274C20.5348 7.80632 20.9591 8.41959 21.2525 9.09743C21.5459 9.77526 21.7027 10.5043 21.7139 11.2429V15M18.8567 22.5C19.6145 22.5 20.3412 22.199 20.877 21.6632C21.4128 21.1273 21.7139 20.4006 21.7139 19.6429V16.4286M18.8567 22.5C18.8567 22.9736 18.6686 23.4278 18.3337 23.7627C17.9988 24.0976 17.5446 24.2857 17.071 24.2857H14.9282C14.4546 24.2857 14.0003 24.0976 13.6655 23.7627C13.3306 23.4278 13.1424 22.9736 13.1424 22.5C13.1424 22.0264 13.3306 21.5722 13.6655 21.2373C14.0003 20.9024 14.4546 20.7143 14.9282 20.7143H17.071C17.5446 20.7143 17.9988 20.9024 18.3337 21.2373C18.6686 21.5722 18.8567 22.0264 18.8567 22.5ZM8.14244 12.8571H9.57101C9.76045 12.8571 9.94213 12.9324 10.0761 13.0663C10.21 13.2003 10.2853 13.382 10.2853 13.5714V17.8571C10.2853 18.0466 10.21 18.2283 10.0761 18.3622C9.94213 18.4962 9.76045 18.5714 9.57101 18.5714H8.14244C7.76356 18.5714 7.4002 18.4209 7.13229 18.153C6.86438 17.8851 6.71387 17.5217 6.71387 17.1429V14.2857C6.71387 13.9068 6.86438 13.5435 7.13229 13.2756C7.4002 13.0076 7.76356 12.8571 8.14244 12.8571ZM23.8567 18.5714H22.4282C22.2387 18.5714 22.057 18.4962 21.9231 18.3622C21.7891 18.2283 21.7139 18.0466 21.7139 17.8571V13.5714C21.7139 13.382 21.7891 13.2003 21.9231 13.0663C22.057 12.9324 22.2387 12.8571 22.4282 12.8571H23.8567C24.2356 12.8571 24.599 13.0076 24.8669 13.2756C25.1348 13.5435 25.2853 13.9068 25.2853 14.2857V17.1429C25.2853 17.5217 25.1348 17.8851 24.8669 18.153C24.599 18.4209 24.2356 18.5714 23.8567 18.5714Z" stroke="#003AC6" stroke-width="1.5" stroke-linecap="round" stroke-linejoin="round"/>
</g>
<defs>
<clipPath id="clip0_126_1937">
<rect width="20" height="20" fill="white" transform="translate(6 5)"/>
</clipPath>
</defs>
</svg>
