<svg width="69" height="66" viewBox="0 0 69 66" fill="none" xmlns="http://www.w3.org/2000/svg">
<g clip-path="url(#clip0_178_417)" filter="url(#filter0_d_178_417)">
<path d="M52.6542 5.56704C51.6995 6.71953 50.8985 7.81743 50.0912 8.90694C49.7218 9.40446 49.1676 9.5514 48.5679 9.52411C44.6912 9.34148 40.8124 9.45274 36.9357 9.44434C27.6652 9.42545 18.3947 9.44015 9.12426 9.44434C8.03679 9.44434 7.80228 9.67316 7.80228 10.7648C7.79813 20.2492 7.79606 29.7335 7.79606 39.2179C7.79606 40.3284 8.01189 40.5362 9.11181 40.5362C24.8407 40.5362 40.5696 40.5362 56.2985 40.5362C57.527 40.5362 57.7014 40.3578 57.7034 39.0941C57.7118 33.8564 57.7221 28.6209 57.7242 23.3833C57.7242 22.9362 57.8155 22.5247 58.0708 22.1616C59.1458 20.6186 60.227 19.0799 61.3062 17.539C61.3353 17.4991 61.383 17.4719 61.4432 17.4215C61.5802 17.6083 61.5137 17.8098 61.5137 17.9883C61.5179 26.9499 61.5096 35.9116 61.5262 44.8754C61.5283 46.03 61.4556 47.1426 60.8247 48.1397C59.9614 49.5063 58.6996 50.1907 57.1141 50.1949C51.0292 50.2075 44.9444 50.1991 38.8595 50.1865C38.4486 50.1865 38.2929 50.2704 38.3531 50.7239C38.6001 52.5649 39.6668 53.7363 41.2835 54.4668C41.8874 54.7397 42.5328 54.8678 43.1803 54.9916C43.9607 55.1407 44.2097 55.443 44.2304 56.2323C44.272 57.7374 44.0644 57.9537 42.5847 57.9579C38.7433 57.9726 34.8998 58.0271 31.0584 57.9956C28.2131 57.9726 25.3678 57.9684 22.5226 57.9663C21.5721 57.9663 21.2919 57.6745 21.267 56.7067C21.2359 55.4598 21.406 55.2477 22.6056 54.8909C23.2531 54.6998 23.8985 54.4941 24.5232 54.238C26.1025 53.5893 26.9409 52.3718 27.1505 50.6714C27.2003 50.2662 27.082 50.1865 26.7126 50.1886C23.2967 50.2012 19.8807 50.197 16.4647 50.197C13.7771 50.197 11.0917 50.2117 8.40413 50.1928C5.82657 50.1739 4.01897 48.3076 4.01067 45.6416C3.99406 40.4859 4.00236 35.3385 4.00029 30.1912C4.00029 23.6226 4.00029 17.0541 4.00029 10.4856C4.00029 8.90274 4.41328 7.49205 5.73318 6.4991C6.70236 5.76857 7.83964 5.57124 9.0122 5.57124C17.0188 5.56704 25.0254 5.57124 33.032 5.57124C39.3493 5.57124 45.6645 5.56704 51.9818 5.56494C52.1561 5.56494 52.3304 5.56494 52.6542 5.56494V5.56704ZM32.7954 43.2149C31.6042 43.196 30.5893 44.1952 30.5914 45.3855C30.5914 46.5086 31.5938 47.5372 32.702 47.5519C33.858 47.5666 34.8707 46.5863 34.8956 45.4254C34.9226 44.2561 33.9493 43.2338 32.7933 43.217L32.7954 43.2149Z" fill="#368DE5"/>
<path d="M32.4806 13.3408C37.0691 13.3408 41.6597 13.3408 46.2483 13.3408C46.9124 13.3408 46.9414 13.3681 46.5865 13.9391C45.5323 15.6311 44.837 17.4721 44.3908 19.4076C44.2352 20.0857 43.8782 20.4657 43.2494 20.6798C42.3799 20.9779 41.4875 21.1059 40.5764 21.108C33.3003 21.1122 26.0263 21.1122 18.7502 21.108C17.7229 21.108 17.5341 20.9569 17.4407 19.9324C17.3058 18.4441 17.4054 16.9494 17.393 15.459C17.3888 15.0286 17.3805 14.6004 17.4407 14.17C17.5009 13.7418 17.7105 13.4773 18.1359 13.4038C18.3103 13.3744 18.4867 13.345 18.6631 13.345C23.2703 13.3408 27.8775 13.3429 32.4847 13.3429L32.4806 13.3408Z" fill="#368DE5"/>
<path d="M17.4418 29.8179C17.4418 27.9474 17.4356 26.077 17.4439 24.2066C17.448 23.3669 17.7303 23.0667 18.5749 23.0604C20.9927 23.0436 23.4125 23.0415 25.8302 23.0562C26.6811 23.0625 26.9654 23.39 26.9654 24.2591C26.9696 27.9642 26.9717 31.6694 26.9696 35.3746C26.9696 36.3192 26.7081 36.6173 25.7721 36.6257C23.4083 36.6446 21.0425 36.6467 18.6766 36.6299C17.6784 36.6236 17.4356 36.3444 17.4335 35.32C17.4293 33.4853 17.4335 31.6526 17.4335 29.8179C17.4356 29.8179 17.4397 29.8179 17.4418 29.8179Z" fill="#368DE5"/>
<path d="M48.7713 16.8634C49.9086 19.0424 51.656 20.365 54.0779 20.8688C53.1938 21.8953 52.2952 22.756 51.2887 23.497C50.7138 23.9211 50.112 24.3052 49.4748 24.6264C49.3067 24.7125 49.1013 24.7692 49.1905 25.0547C49.6741 26.5913 49.3815 28.065 48.6945 29.4442C47.1422 32.5658 44.8718 34.9169 41.4973 36.0106C40.277 36.4074 39.0692 36.2206 37.88 35.8511C37.44 35.7146 37.3342 35.4081 37.5687 35.0114C37.6579 34.8602 37.7866 34.7238 37.9236 34.6146C39.3307 33.5104 39.9636 32.041 40.0134 30.2629C40.0799 27.9138 40.9826 25.9427 42.7404 24.3913C43.7075 23.5369 44.8655 23.0856 46.1087 22.8778C46.5362 22.8064 46.6483 22.6238 46.7001 22.2312C46.9409 20.365 47.605 18.6541 48.5928 17.065C48.6281 17.0083 48.68 16.9642 48.7713 16.8613V16.8634Z" fill="#368DE5"/>
<path d="M65.0007 1.36663C64.9488 1.91243 64.8533 2.40155 64.6852 2.88018C63.2595 6.90863 61.1011 10.5445 58.812 14.109C57.9404 15.4672 57.0522 16.8129 56.166 18.1606C55.7572 18.782 55.5808 18.8344 54.871 18.6287C52.9264 18.0682 51.4778 16.8737 50.4319 15.1398C50.1932 14.743 50.2202 14.4407 50.4962 14.0671C52.9991 10.6789 55.5496 7.33268 58.426 4.25519C59.8331 2.75003 61.2547 1.26376 63.081 0.251928C63.5168 0.010515 63.9464 -0.100745 64.376 0.117576C64.8782 0.371585 64.9675 0.890098 65.0007 1.36663Z" fill="#368DE5"/>
<path d="M34.3747 23.0495C35.8315 23.0495 37.2905 23.06 38.7474 23.0432C39.1853 23.0369 39.2039 23.1796 38.9819 23.4882C38.9715 23.5029 38.9611 23.5176 38.9528 23.5323C37.8488 25.1949 38.4008 24.943 36.3981 24.9661C34.2128 24.9913 32.0254 24.9787 29.838 24.9829C29.535 24.9829 29.1365 25.0312 29.0349 24.7121C28.8896 24.2607 28.9 23.7569 29.0515 23.2867C29.0888 23.167 29.2403 23.1397 29.3711 23.1292C29.6346 23.1082 29.8982 23.0558 30.1638 23.0537C31.5688 23.0453 32.9717 23.0495 34.3767 23.0495H34.3747Z" fill="#368DE5"/>
<path d="M33.2376 26.9436C34.4289 26.9436 35.618 26.9562 36.8093 26.9373C37.2243 26.931 37.3613 27.038 37.3136 27.4915C37.1704 28.8665 37.189 28.8644 35.8442 28.8644C33.8 28.8623 31.7579 28.8644 29.7137 28.8644C29.06 28.8644 28.9064 28.709 28.9043 28.0352C28.9023 26.996 28.9645 26.9373 29.9856 26.9415C31.0689 26.9457 32.1543 26.9415 33.2376 26.9415V26.9436Z" fill="#368DE5"/>
<path d="M33.2518 30.8149C34.4409 30.8149 35.6301 30.8338 36.8193 30.8065C37.2634 30.796 37.3298 30.9976 37.2779 31.3607C37.1617 32.2025 36.564 32.7609 35.7214 32.7651C33.6793 32.7735 31.6393 32.7588 29.5971 32.7735C29.1053 32.7777 28.8604 32.5993 28.8936 32.0829C28.9061 31.8856 28.8978 31.6882 28.8936 31.4909C28.8874 31.0249 29.097 30.8044 29.5743 30.8086C30.7988 30.8212 32.0232 30.8128 33.2476 30.8128V30.817L33.2518 30.8149Z" fill="#368DE5"/>
<path d="M32.2403 36.64C31.3708 36.64 30.5012 36.6442 29.6296 36.64C29.0547 36.6358 28.9219 36.4951 28.897 35.9031C28.8928 35.7961 28.8928 35.6869 28.8907 35.5799C28.8866 34.8388 28.9841 34.7087 29.698 34.7024C31.3313 34.6856 32.9646 34.7024 34.5979 34.6856C34.9009 34.6835 35.0047 34.8157 35.0399 35.0823C35.1063 35.5777 35.399 36.2243 35.1935 36.5266C34.9673 36.8625 34.2741 36.6127 33.7844 36.6337C33.2697 36.6568 32.755 36.6379 32.2403 36.6379V36.64Z" fill="#368DE5"/>
</g>
<defs>
<filter id="filter0_d_178_417" x="0" y="0" width="69" height="66" filterUnits="userSpaceOnUse" color-interpolation-filters="sRGB">
<feFlood flood-opacity="0" result="BackgroundImageFix"/>
<feColorMatrix in="SourceAlpha" type="matrix" values="0 0 0 0 0 0 0 0 0 0 0 0 0 0 0 0 0 0 127 0" result="hardAlpha"/>
<feOffset dy="4"/>
<feGaussianBlur stdDeviation="2"/>
<feComposite in2="hardAlpha" operator="out"/>
<feColorMatrix type="matrix" values="0 0 0 0 0 0 0 0 0 0 0 0 0 0 0 0 0 0 0.25 0"/>
<feBlend mode="normal" in2="BackgroundImageFix" result="effect1_dropShadow_178_417"/>
<feBlend mode="normal" in="SourceGraphic" in2="effect1_dropShadow_178_417" result="shape"/>
</filter>
<clipPath id="clip0_178_417">
<rect width="61" height="58" fill="white" transform="translate(4)"/>
</clipPath>
</defs>
</svg>
