<svg width="57" height="49" viewBox="0 0 57 49" fill="none" xmlns="http://www.w3.org/2000/svg">
<path d="M40.3327 48.5002L39.4827 44.2502C38.916 44.0141 38.3852 43.7666 37.8903 43.5078C37.3955 43.2491 36.8873 42.9298 36.366 42.5502L32.2577 43.8252L29.4243 39.0085L32.6827 36.1752C32.5882 35.5141 32.541 34.9002 32.541 34.3335C32.541 33.7668 32.5882 33.1529 32.6827 32.4918L29.4243 29.6585L32.2577 24.8418L36.366 26.1168C36.8855 25.7391 37.3936 25.4208 37.8903 25.162C38.3871 24.9032 38.9179 24.6548 39.4827 24.4168L40.3327 20.1668H45.9993L46.8493 24.4168C47.416 24.6529 47.9477 24.9127 48.4445 25.196C48.9413 25.4793 49.4485 25.8335 49.966 26.2585L54.0743 24.8418L56.9077 29.8002L53.6493 32.6335C53.7438 33.2002 53.791 33.7904 53.791 34.4043C53.791 35.0182 53.7438 35.6085 53.6493 36.1752L56.9077 39.0085L54.0743 43.8252L49.966 42.5502C49.4466 42.9279 48.9394 43.2472 48.4445 43.5078C47.9496 43.7685 47.4179 44.0159 46.8493 44.2502L45.9993 48.5002H40.3327ZM0.666016 45.6668V37.7335C0.666016 36.1752 1.0674 34.7113 1.87018 33.3418C2.67296 31.9724 3.78268 30.9335 5.19935 30.2252C7.60768 28.9974 10.323 27.9585 13.3452 27.1085C16.3674 26.2585 19.6966 25.8335 23.3327 25.8335H24.3243C24.6077 25.8335 24.891 25.8807 25.1743 25.9752C23.8049 29.3752 23.2382 32.7516 23.4743 36.1043C23.7105 39.4571 24.8438 42.6446 26.8743 45.6668H0.666016ZM43.166 40.0002C44.7243 40.0002 46.0588 39.4458 47.1695 38.337C48.2802 37.2282 48.8346 35.8937 48.8327 34.3335C48.8308 32.7733 48.2764 31.4397 47.1695 30.3328C46.0626 29.2259 44.7281 28.6706 43.166 28.6668C41.6039 28.6631 40.2703 29.2184 39.1653 30.3328C38.0603 31.4473 37.505 32.7808 37.4993 34.3335C37.4937 35.8862 38.049 37.2207 39.1653 38.337C40.2817 39.4533 41.6152 40.0077 43.166 40.0002ZM23.3327 23.0002C20.216 23.0002 17.548 21.8904 15.3285 19.671C13.1091 17.4516 11.9993 14.7835 11.9993 11.6668C11.9993 8.55016 13.1091 5.88211 15.3285 3.66266C17.548 1.44322 20.216 0.333496 23.3327 0.333496C26.4493 0.333496 29.1174 1.44322 31.3368 3.66266C33.5563 5.88211 34.666 8.55016 34.666 11.6668C34.666 14.7835 33.5563 17.4516 31.3368 19.671C29.1174 21.8904 26.4493 23.0002 23.3327 23.0002Z" fill="#368DE5"/>
</svg>
