<svg width="58" height="60" viewBox="0 0 58 60" fill="none" xmlns="http://www.w3.org/2000/svg">
<g filter="url(#filter0_d_153_591)">
<path d="M7.9659 49.7882L23.3456 34.4085M42.7127 27.5693L38.109 41.383C38.0352 41.6039 37.9092 41.8038 37.7418 41.9658C37.5744 42.1278 37.3704 42.247 37.1472 42.3134L8.92532 50.7041C8.67106 50.7796 8.40097 50.7839 8.14442 50.7166C7.88788 50.6493 7.65471 50.5129 7.47031 50.3222C7.2859 50.1316 7.15732 49.894 7.09854 49.6354C7.03977 49.3767 7.05307 49.1069 7.13698 48.8553L16.301 21.3682C16.3667 21.1708 16.474 20.9899 16.6158 20.8377C16.7576 20.6855 16.9304 20.5656 17.1227 20.4861L30.1412 15.1259C30.4059 15.0166 30.697 14.9881 30.9779 15.044C31.2587 15.0999 31.5167 15.2377 31.7193 15.4401L42.3623 26.0855C42.5528 26.2759 42.6864 26.5156 42.7483 26.7776C42.8102 27.0397 42.7979 27.3139 42.7127 27.5693Z" stroke="#368DE5" stroke-width="1.5" stroke-linecap="round" stroke-linejoin="round"/>
<path d="M44.4753 7.68982L50.1883 13.4028C50.6176 13.8136 50.9606 14.3059 51.197 14.851C51.4335 15.3961 51.5586 15.9829 51.5652 16.577C51.5718 17.1711 51.4596 17.7605 51.2353 18.3107C51.0109 18.8609 50.679 19.3607 50.2588 19.7808C49.8387 20.201 49.3389 20.5329 48.7887 20.7573C48.2385 20.9816 47.6491 21.0938 47.055 21.0872C46.4609 21.0806 45.8741 20.9555 45.329 20.719C44.7839 20.4826 44.2916 20.1396 43.8808 19.7103L38.1654 13.9973C37.3593 13.1547 36.9151 12.03 36.928 10.864C36.9409 9.69797 37.4098 8.58335 38.2344 7.75879C39.0589 6.93424 40.1736 6.46531 41.3396 6.45242C42.5056 6.43953 43.6327 6.8837 44.4753 7.68982Z" fill="#368DE5" stroke="#368DE5" stroke-width="1.5" stroke-linecap="round" stroke-linejoin="round"/>
<path d="M28.4707 29.2805C28.1363 28.9343 27.7363 28.6581 27.294 28.4681C26.8518 28.2781 26.3761 28.1781 25.8948 28.174C25.4135 28.1698 24.9361 28.2615 24.4906 28.4438C24.0451 28.626 23.6404 28.8952 23.3 29.2356C22.9597 29.5759 22.6905 29.9807 22.5082 30.4262C22.326 30.8717 22.2342 31.349 22.2384 31.8303C22.2426 32.3117 22.3426 32.7873 22.5326 33.2296C22.7226 33.6719 22.9987 34.0719 23.3449 34.4062C24.0286 35.0666 24.9443 35.432 25.8948 35.4237C26.8452 35.4154 27.7544 35.0342 28.4265 34.3621C29.0986 33.69 29.4799 32.7808 29.4881 31.8303C29.4964 30.8799 29.131 29.9642 28.4707 29.2805Z" stroke="#368DE5" stroke-width="1.5" stroke-linecap="round" stroke-linejoin="round"/>
</g>
<defs>
<filter id="filter0_d_153_591" x="-4" y="0" width="66" height="66" filterUnits="userSpaceOnUse" color-interpolation-filters="sRGB">
<feFlood flood-opacity="0" result="BackgroundImageFix"/>
<feColorMatrix in="SourceAlpha" type="matrix" values="0 0 0 0 0 0 0 0 0 0 0 0 0 0 0 0 0 0 127 0" result="hardAlpha"/>
<feOffset dy="4"/>
<feGaussianBlur stdDeviation="2"/>
<feComposite in2="hardAlpha" operator="out"/>
<feColorMatrix type="matrix" values="0 0 0 0 0 0 0 0 0 0 0 0 0 0 0 0 0 0 0.25 0"/>
<feBlend mode="normal" in2="BackgroundImageFix" result="effect1_dropShadow_153_591"/>
<feBlend mode="normal" in="SourceGraphic" in2="effect1_dropShadow_153_591" result="shape"/>
</filter>
</defs>
</svg>
