<svg width="31" height="29" viewBox="0 0 31 29" fill="none" xmlns="http://www.w3.org/2000/svg">
<rect width="31" height="29" rx="3" fill="#E3F0FF"/>
<path d="M21 22L19.9305 21.494C19.5033 21.2905 19.1423 20.9703 18.8891 20.5704C18.636 20.1705 18.5011 19.7072 18.5 19.234V16H23.5V19.234C23.4989 19.7072 23.364 20.1705 23.1109 20.5704C22.8577 20.9703 22.4967 21.2905 22.0695 21.494L21 22ZM20.3585 20.59L21 20.8935L21.6415 20.59C21.898 20.468 22.1147 20.2759 22.2666 20.036C22.4185 19.796 22.4994 19.518 22.5 19.234V17H19.5V19.234C19.5 19.811 19.837 20.3435 20.3585 20.59Z" fill="#003AC6"/>
<path d="M16.5 11.293C16.3125 11.1055 16.0582 11.0001 15.793 11H13C12.7348 11 12.4804 11.1054 12.2929 11.2929C12.1054 11.4804 12 11.7348 12 12V19C12 19.2652 12.1054 19.5196 12.2929 19.7071C12.4804 19.8946 12.7348 20 13 20H17.5V19H13V12H15V14C15 14.2652 15.1054 14.5196 15.2929 14.7071C15.4804 14.8946 15.7348 15 16 15H18.146C18.4925 15 18.802 14.793 18.9345 14.473C19.067 14.153 18.9945 13.788 18.7495 13.5425L16.5 11.293ZM16 14V12.207L17.7925 14H16Z" fill="#003AC6"/>
<path d="M22 9H16L14.293 7.293C14.1055 7.10545 13.8512 7.00006 13.586 7H10C9.73478 7 9.48043 7.10536 9.29289 7.29289C9.10536 7.48043 9 7.73478 9 8V18C9 18.2652 9.10536 18.5196 9.29289 18.7071C9.48043 18.8946 9.73478 19 10 19H11V18H10V8H13.586L15.586 10H22V15H23V10C23 9.73478 22.8946 9.48043 22.7071 9.29289C22.5196 9.10536 22.2652 9 22 9Z" fill="#003AC6"/>
</svg>
