<svg width="66" height="67" viewBox="0 0 66 67" fill="none" xmlns="http://www.w3.org/2000/svg">
<g clip-path="url(#clip0_178_436)" filter="url(#filter0_d_178_436)">
<path d="M29.1474 51.0513C28.897 51.0513 28.695 51.0513 28.4951 51.0513C23.0646 51.0513 17.632 51.0513 12.2014 51.0513C10.4824 51.0513 8.76134 51.0576 7.04234 51.0492C5.62632 51.0429 4.46699 50.2084 4.12193 48.9483C4.0525 48.6925 4.02094 48.4178 4.02094 48.1536C4.01462 43.6939 4.01673 39.2341 4.01673 34.7744C4.01673 28.6477 4.03777 22.521 4.002 16.3944C3.99358 14.8239 5.11714 13.3814 6.96028 13.3457C9.14007 13.3059 11.3241 13.3374 13.5038 13.3394C13.5249 13.3394 13.5459 13.352 13.5607 13.3562C13.3818 14.6478 13.2051 15.9352 13.0199 17.275C12.9463 17.2792 12.8179 17.2918 12.6896 17.2918C11.3851 17.2918 10.0806 17.2918 8.77607 17.2918C8.15959 17.2918 7.98705 17.4595 7.98705 18.0634C7.98705 21.7285 7.98705 25.3915 7.98705 29.0566C7.98705 34.8037 7.98705 40.5509 7.98705 46.2959C7.98705 46.9459 8.14275 47.1011 8.80763 47.1011C24.933 47.1011 41.0584 47.1011 57.1858 47.1011C57.8781 47.1011 58.019 46.9606 58.019 46.277C58.019 41.2679 58.019 36.2588 58.019 31.2498C58.019 26.8927 58.019 22.5357 58.019 18.1766C58.019 17.4197 57.8886 17.2897 57.1438 17.2897C55.8729 17.2897 54.6021 17.2897 53.3312 17.2897C53.2092 17.2897 53.0872 17.2897 52.9883 17.2897C52.8052 15.9709 52.6264 14.6772 52.4433 13.3562C52.4938 13.352 52.5906 13.3332 52.6853 13.3332C54.7662 13.3332 56.8471 13.3248 58.9259 13.3332C60.4177 13.3394 61.6212 14.2431 61.9199 15.5683C61.9704 15.7947 61.9831 16.0338 61.9831 16.2686C61.9831 19.4284 61.9725 22.5881 61.9725 25.7479C61.9725 33.1871 61.9641 40.6263 61.9978 48.0677C62.0062 49.7576 60.6512 51.0261 59.1153 51.0408C57.653 51.0555 56.1906 51.045 54.7304 51.0471C54.5411 51.0471 54.3496 51.0492 54.1602 51.0492C48.5151 51.0492 42.87 51.0492 37.2248 51.0492C37.1154 51.0492 37.006 51.0492 36.8482 51.0492C37.0165 51.6363 37.1722 52.1814 37.3321 52.7266C37.734 54.1021 38.1422 55.4775 38.5314 56.8551C38.5987 57.092 38.6997 57.1675 38.9459 57.1654C40.1599 57.1528 41.374 57.157 42.5901 57.1612C43.0151 57.1612 43.3223 57.3583 43.4843 57.7525C43.6274 58.1026 43.5453 58.5346 43.2361 58.7568C43.0572 58.8868 42.811 58.9895 42.5943 58.9895C37.9949 59 33.3976 58.9958 28.7981 58.9937C27.0223 58.9937 25.2465 58.9979 23.4707 58.9979C22.9215 58.9979 22.5449 58.7023 22.4776 58.2347C22.3892 57.6371 22.7995 57.1654 23.4307 57.1612C24.6574 57.1528 25.8819 57.1528 27.1086 57.1612C27.3085 57.1612 27.4053 57.1109 27.4642 56.9096C28.0007 55.0372 28.5498 53.1669 29.0948 51.2966C29.1137 51.2337 29.1243 51.1708 29.1495 51.0492L29.1474 51.0513Z" fill="#368DE5"/>
<path d="M40.7742 12.6642C41.1592 12.5238 41.559 12.4189 41.923 12.2365C42.4469 11.9765 42.8488 12.0478 43.0949 12.5804C43.4274 13.2995 43.7346 14.0355 44.0102 14.7777C44.208 15.3103 43.9976 15.6563 43.4547 15.8303C42.0703 16.2748 41.3717 17.4972 41.8073 18.7448C42.0745 19.5059 42.6173 19.9923 43.4 20.2062C44.0186 20.376 44.2248 20.6968 44.0018 21.3049C43.7304 22.0492 43.419 22.7831 43.0823 23.5002C42.8404 24.0181 42.4364 24.1082 41.9398 23.8252C40.9783 23.2779 39.8821 23.3995 39.1457 24.1334C38.3987 24.8798 38.2767 25.9575 38.8301 26.9136C39.1141 27.4022 39.0194 27.8173 38.5018 28.0543C37.7591 28.3939 36.9995 28.7064 36.2316 28.9852C35.6992 29.1802 35.3416 28.9496 35.1964 28.4002C34.9186 27.3561 34.0686 26.6746 33.0313 26.6683C31.9688 26.662 31.0956 27.333 30.8074 28.3814C30.6432 28.9768 30.315 29.1844 29.7259 28.9705C28.9789 28.7001 28.2404 28.396 27.5187 28.0627C26.9801 27.8131 26.8875 27.4085 27.18 26.9011C27.7291 25.9512 27.5987 24.8567 26.8475 24.125C26.1048 23.3995 25.0065 23.2779 24.0807 23.8168C23.5716 24.1124 23.1634 24.0243 22.913 23.4897C22.57 22.7495 22.2586 21.9926 21.9767 21.2273C21.7936 20.7304 22.023 20.3613 22.5195 20.2272C23.6157 19.9315 24.2953 19.1138 24.3143 18.0717C24.3332 17.0254 23.6789 16.149 22.5658 15.8429C21.9998 15.6877 21.8126 15.3523 21.9914 14.8427C22.2797 14.0229 22.6268 13.2199 22.9993 12.4315C23.1865 12.0373 23.6305 11.9849 24.0513 12.2281C24.834 12.681 25.6272 12.7229 26.4162 12.2617C27.4788 11.6389 27.828 10.3285 27.2368 9.25076C26.8644 8.57141 26.9443 8.25271 27.6597 7.92143C28.3414 7.60692 29.0421 7.32805 29.749 7.07854C30.315 6.87935 30.6411 7.08693 30.7926 7.66772C31.0535 8.66157 31.9456 9.37656 32.9493 9.39543C33.9866 9.4164 34.8829 8.74754 35.1795 7.73062C35.3794 7.04918 35.6761 6.86467 36.3494 7.10789C37.0753 7.36999 37.7907 7.67191 38.4913 7.99691C39.0236 8.24432 39.1183 8.65109 38.8132 9.1606C37.8664 10.7394 39.0426 12.5762 40.7679 12.6579L40.7742 12.6642ZM28.4087 18.0025C28.3982 20.5039 30.4349 22.5881 32.8988 22.6007C35.4931 22.6132 37.5929 20.6109 37.6055 18.1136C37.6181 15.541 35.5751 13.461 33.0271 13.4547C30.4896 13.4484 28.4193 15.4864 28.4087 18.0025Z" fill="#368DE5"/>
<path d="M49.7037 24.9971C49.9772 24.9971 50.236 24.9594 50.4801 25.0055C50.9535 25.0957 51.2712 25.4563 51.3322 25.9302C51.3932 26.4082 51.2312 26.8129 50.8041 27.0435C49.6363 27.6705 48.4644 28.2869 47.2756 28.874C46.5623 29.2262 45.7544 28.7649 45.6849 27.9703C45.5692 26.6535 45.4851 25.3347 45.4051 24.0158C45.3714 23.456 45.767 22.9822 46.3035 22.8752C46.8464 22.7683 47.3724 23.0534 47.5828 23.5734C47.6165 23.6552 47.6417 23.7412 47.7427 23.8439C47.9363 23.2317 48.1551 22.6278 48.3171 22.0093C50.6126 13.1904 44.9506 4.22687 35.9538 2.5369C31.6257 1.72546 27.6028 2.604 23.946 5.08653C23.6935 5.25846 23.3548 5.37378 23.0497 5.38427C22.5636 5.39894 22.1807 5.03411 22.0566 4.57283C21.9303 4.10735 22.0986 3.64188 22.5258 3.33785C23.7377 2.4719 25.038 1.7653 26.4267 1.23064C36.7785 -2.75526 48.2287 3.32737 50.6547 14.1193C51.4711 17.7487 51.1597 21.3048 49.7899 24.7686C49.7605 24.842 49.731 24.9132 49.7037 24.9866C49.6995 24.9971 49.7037 25.0097 49.7037 24.9992V24.9971Z" fill="#368DE5"/>
<path d="M18.2352 12.2198C17.9953 13.0774 17.7155 13.9244 17.5219 14.7925C17.0969 16.6921 17.0254 18.6274 17.3746 20.5354C18.3278 25.729 21.0967 29.7024 25.8518 32.0654C31.4381 34.8414 36.9086 34.3697 42.1119 30.9289C42.7241 30.5243 43.4037 30.5998 43.7804 31.1386C44.1591 31.6796 44.0181 32.3589 43.4206 32.7762C40.4896 34.8226 37.2389 35.9779 33.6599 36.0387C26.7397 36.154 21.3113 33.3003 17.6377 27.4735C14.4858 22.4749 14.1134 17.0926 16.1248 11.5467C16.1838 11.3832 16.2511 11.2196 16.3226 11.0351C16.1248 11.0603 15.9607 11.0959 15.7966 11.098C15.2727 11.1043 14.8624 10.8003 14.7109 10.3076C14.5594 9.81274 14.7383 9.27388 15.197 9.02856C16.3752 8.39954 17.5577 7.77681 18.757 7.18972C19.4661 6.84376 20.2677 7.33859 20.3287 8.12696C20.4255 9.37661 20.5118 10.6284 20.5917 11.8801C20.638 12.6035 20.2845 13.0941 19.6744 13.1948C19.0305 13.2996 18.5424 12.9536 18.3425 12.2491C18.3067 12.2408 18.2689 12.2324 18.2331 12.2219L18.2352 12.2198Z" fill="#368DE5"/>
</g>
<defs>
<filter id="filter0_d_178_436" x="0" y="0" width="66" height="67" filterUnits="userSpaceOnUse" color-interpolation-filters="sRGB">
<feFlood flood-opacity="0" result="BackgroundImageFix"/>
<feColorMatrix in="SourceAlpha" type="matrix" values="0 0 0 0 0 0 0 0 0 0 0 0 0 0 0 0 0 0 127 0" result="hardAlpha"/>
<feOffset dy="4"/>
<feGaussianBlur stdDeviation="2"/>
<feComposite in2="hardAlpha" operator="out"/>
<feColorMatrix type="matrix" values="0 0 0 0 0 0 0 0 0 0 0 0 0 0 0 0 0 0 0.25 0"/>
<feBlend mode="normal" in2="BackgroundImageFix" result="effect1_dropShadow_178_436"/>
<feBlend mode="normal" in="SourceGraphic" in2="effect1_dropShadow_178_436" result="shape"/>
</filter>
<clipPath id="clip0_178_436">
<rect width="58" height="59" fill="white" transform="translate(4)"/>
</clipPath>
</defs>
</svg>
