<svg width="75" height="73" viewBox="0 0 75 73" fill="none" xmlns="http://www.w3.org/2000/svg">
<g clip-path="url(#clip0_178_410)" filter="url(#filter0_d_178_410)">
<path d="M43.6679 56.9244V59.1926C46.2292 59.4941 48.7217 59.7793 51.2142 60.0836C51.7127 60.1433 52.1947 60.3009 52.6905 60.3769C53.6489 60.5263 54.0841 60.9908 54.0896 62.0176C54.0951 63.0716 53.8747 63.7642 52.6905 63.9028C49.4241 64.2776 46.1576 64.992 42.8912 64.9975C36.7633 65.0111 30.6353 64.6308 24.5073 64.3809C23.7885 64.351 23.0834 64.0685 22.3619 63.9707C21.1335 63.8077 20.7342 63.1775 20.7617 61.9524C20.7892 60.6866 21.5329 60.4476 22.4968 60.3117C25.3474 59.9179 28.1979 59.5349 31.1586 59.1356V56.9217H29.5061C22.7144 56.9217 15.9227 56.9244 9.13097 56.9217C5.38533 56.919 4 55.5418 4 51.8231C4 40.0992 4 28.3781 4 16.6543C4 13.0279 5.40461 11.6235 9.03182 11.6235C18.115 11.6235 27.1981 11.6235 36.2813 11.6235H38.1486V15.527C37.5785 15.527 37.0414 15.527 36.5071 15.527C27.603 15.527 18.7016 15.527 9.79747 15.527C8.00452 15.527 7.9577 15.5759 7.9577 17.3741C7.9577 28.6443 7.9577 39.9145 7.9577 51.1847C7.9577 52.9612 8.01278 53.0156 9.81675 53.0156C28.2199 53.0156 46.6203 53.0156 65.0235 53.0156C66.8468 53.0156 66.8991 52.9667 66.8991 51.201C66.9046 43.3725 66.9073 35.5439 66.9128 27.7153C66.9128 27.3567 66.9128 27.0009 66.9128 26.5364H70.7576C70.7907 27.0607 70.854 27.5822 70.854 28.1065C70.8595 36.117 70.8623 44.1303 70.8568 52.1409C70.8568 55.3462 69.309 56.9081 66.0701 56.9163C59.2315 56.9326 52.393 56.9217 45.5572 56.9217C44.9734 56.9217 44.3867 56.9217 43.6651 56.9217L43.6679 56.9244Z" fill="#368DE5"/>
<path d="M63.5496 0C59.6635 3.90886 55.7526 7.83673 51.8583 11.7836C51.5856 12.0607 51.368 12.4464 51.2551 12.8185C50.4867 15.3611 49.7348 17.909 49.0188 20.4651C48.6332 21.8342 49.1647 22.3503 50.539 21.9673C52.6928 21.367 54.8438 20.7585 56.9782 20.1038C57.7935 19.8512 58.7574 19.6502 59.3193 19.0961C63.2467 15.2415 67.0832 11.3001 70.9996 7.33691C68.6696 5.03887 66.2101 2.6213 63.5496 0ZM54.5463 18.8299L51.8418 20.0957C51.3378 20.332 50.8062 19.8268 51.0293 19.3215L52.029 17.0425C52.3292 15.9668 52.657 14.8966 52.9737 13.829L55.7251 14.2691C56.2346 14.3506 56.634 14.7445 56.7193 15.2443C56.8736 16.1488 57.0251 17.0371 57.1931 18.0177C56.4136 18.254 55.5048 18.5555 54.5463 18.8299Z" fill="#368DE5"/>
<path d="M43.9962 21.5678C41.7873 26.7887 39.6777 31.7787 37.5652 36.7714C36.9841 38.1458 36.2928 39.485 35.8274 40.8948C35.406 42.1688 34.734 42.7773 33.3459 42.5382C32.9052 42.4622 32.4425 42.5273 31.7402 42.5273C32.2195 41.3376 32.6133 40.3162 33.0374 39.3084C35.2848 33.9762 37.5845 28.6657 39.7631 23.3063C40.2946 21.997 40.9391 21.2881 42.4263 21.557C42.8642 21.6358 43.3324 21.5706 43.9962 21.5706V21.5678Z" fill="#368DE5"/>
<path d="M20.0998 32.4469C22.551 33.4655 24.6855 34.3592 26.8255 35.2366C28.9764 36.1194 28.9792 36.1113 28.7423 38.6538C27.9574 38.3332 27.2083 38.0507 26.4812 37.7248C23.6967 36.4753 20.9206 35.2094 18.1361 33.9572C17.5495 33.6937 16.9959 33.509 17.062 32.6452C17.1171 31.9199 17.1997 31.4147 17.9764 31.0561C21.3723 29.4996 24.7323 27.8698 28.1089 26.2726C28.2631 26.1992 28.4504 26.1938 28.6212 26.1558C29.1692 28.3995 29.0811 28.5679 27.0816 29.4263C24.8728 30.3743 22.6695 31.3359 20.0998 32.4469Z" fill="#368DE5"/>
<path d="M47.3037 25.8164C51.019 27.5739 54.6076 29.2445 58.1605 30.9884C58.524 31.1677 58.8352 31.7761 58.8628 32.2026C58.8903 32.6318 58.648 33.3299 58.3175 33.4847C54.8142 35.1308 51.2724 36.6955 47.7361 38.2764C47.6645 38.309 47.5598 38.2682 47.4689 38.2628C46.8713 36.1359 46.9621 35.9267 48.8735 35.1526C51.1044 34.2507 53.338 33.357 55.9021 32.3275C53.9935 31.4746 52.374 30.7466 50.7518 30.0268C50.2947 29.8231 49.8265 29.6465 49.3665 29.4482C47.8921 28.8035 47.2045 27.5929 47.3037 25.8164Z" fill="#368DE5"/>
</g>
<defs>
<filter id="filter0_d_178_410" x="0" y="0" width="75" height="73" filterUnits="userSpaceOnUse" color-interpolation-filters="sRGB">
<feFlood flood-opacity="0" result="BackgroundImageFix"/>
<feColorMatrix in="SourceAlpha" type="matrix" values="0 0 0 0 0 0 0 0 0 0 0 0 0 0 0 0 0 0 127 0" result="hardAlpha"/>
<feOffset dy="4"/>
<feGaussianBlur stdDeviation="2"/>
<feComposite in2="hardAlpha" operator="out"/>
<feColorMatrix type="matrix" values="0 0 0 0 0 0 0 0 0 0 0 0 0 0 0 0 0 0 0.25 0"/>
<feBlend mode="normal" in2="BackgroundImageFix" result="effect1_dropShadow_178_410"/>
<feBlend mode="normal" in="SourceGraphic" in2="effect1_dropShadow_178_410" result="shape"/>
</filter>
<clipPath id="clip0_178_410">
<rect width="67" height="65" fill="white" transform="translate(4)"/>
</clipPath>
</defs>
</svg>
