<svg width="85" height="17" viewBox="0 0 85 17" fill="none" xmlns="http://www.w3.org/2000/svg">
<path d="M7.78671 2.19529C8.01122 1.5043 8.98878 1.50431 9.21329 2.19529L10.24 5.35512C10.3404 5.66414 10.6284 5.87336 10.9533 5.87336L14.2757 5.87336C15.0023 5.87336 15.3043 6.80307 14.7166 7.23012L12.0286 9.183C11.7658 9.37398 11.6558 9.71251 11.7562 10.0215L12.7829 13.1814C13.0074 13.8723 12.2165 14.4469 11.6288 14.0199L8.94084 12.067C8.67797 11.876 8.32203 11.876 8.05916 12.067L5.37125 14.0199C4.78346 14.4469 3.9926 13.8723 4.21712 13.1814L5.24381 10.0215C5.34421 9.71251 5.23422 9.37398 4.97136 9.183L2.28344 7.23012C1.69566 6.80307 1.99774 5.87336 2.72428 5.87336L6.04672 5.87336C6.37164 5.87336 6.65961 5.66413 6.76002 5.35512L7.78671 2.19529Z" fill="#FCC640"/>
<path d="M24.7867 2.19529C25.0112 1.5043 25.9888 1.50431 26.2133 2.19529L27.24 5.35512C27.3404 5.66414 27.6284 5.87336 27.9533 5.87336L31.2757 5.87336C32.0023 5.87336 32.3043 6.80307 31.7166 7.23012L29.0286 9.183C28.7658 9.37398 28.6558 9.71251 28.7562 10.0215L29.7829 13.1814C30.0074 13.8723 29.2165 14.4469 28.6288 14.0199L25.9408 12.067C25.678 11.876 25.322 11.876 25.0592 12.067L22.3712 14.0199C21.7835 14.4469 20.9926 13.8723 21.2171 13.1814L22.2438 10.0215C22.3442 9.71251 22.2342 9.37398 21.9714 9.183L19.2834 7.23012C18.6957 6.80307 18.9977 5.87336 19.7243 5.87336L23.0467 5.87336C23.3716 5.87336 23.6596 5.66413 23.76 5.35512L24.7867 2.19529Z" fill="#FCC640"/>
<path d="M41.7867 2.19529C42.0112 1.5043 42.9888 1.50431 43.2133 2.19529L44.24 5.35512C44.3404 5.66414 44.6284 5.87336 44.9533 5.87336L48.2757 5.87336C49.0023 5.87336 49.3043 6.80307 48.7166 7.23012L46.0286 9.183C45.7658 9.37398 45.6558 9.71251 45.7562 10.0215L46.7829 13.1814C47.0074 13.8723 46.2165 14.4469 45.6288 14.0199L42.9408 12.067C42.678 11.876 42.322 11.876 42.0592 12.067L39.3712 14.0199C38.7835 14.4469 37.9926 13.8723 38.2171 13.1814L39.2438 10.0215C39.3442 9.71251 39.2342 9.37398 38.9714 9.183L36.2834 7.23012C35.6957 6.80307 35.9977 5.87336 36.7243 5.87336L40.0467 5.87336C40.3716 5.87336 40.6596 5.66413 40.76 5.35512L41.7867 2.19529Z" fill="#FCC640"/>
<path d="M58.7867 2.19529C59.0112 1.5043 59.9888 1.50431 60.2133 2.19529L61.24 5.35512C61.3404 5.66414 61.6284 5.87336 61.9533 5.87336L65.2757 5.87336C66.0023 5.87336 66.3043 6.80307 65.7166 7.23012L63.0286 9.183C62.7658 9.37398 62.6558 9.71251 62.7562 10.0215L63.7829 13.1814C64.0074 13.8723 63.2165 14.4469 62.6288 14.0199L59.9408 12.067C59.678 11.876 59.322 11.876 59.0592 12.067L56.3712 14.0199C55.7835 14.4469 54.9926 13.8723 55.2171 13.1814L56.2438 10.0215C56.3442 9.71251 56.2342 9.37398 55.9714 9.183L53.2834 7.23012C52.6957 6.80307 52.9977 5.87336 53.7243 5.87336L57.0467 5.87336C57.3716 5.87336 57.6596 5.66413 57.76 5.35512L58.7867 2.19529Z" fill="#FCC640"/>
<path d="M75.7867 2.19529C76.0112 1.5043 76.9888 1.50431 77.2133 2.19529L78.24 5.35512C78.3404 5.66414 78.6284 5.87336 78.9533 5.87336L82.2757 5.87336C83.0023 5.87336 83.3043 6.80307 82.7166 7.23012L80.0286 9.183C79.7658 9.37398 79.6558 9.71251 79.7562 10.0215L80.7829 13.1814C81.0074 13.8723 80.2165 14.4469 79.6288 14.0199L76.9408 12.067C76.678 11.876 76.322 11.876 76.0592 12.067L73.3712 14.0199C72.7835 14.4469 71.9926 13.8723 72.2171 13.1814L73.2438 10.0215C73.3442 9.71251 73.2342 9.37398 72.9714 9.183L70.2834 7.23012C69.6957 6.80307 69.9977 5.87336 70.7243 5.87336L74.0467 5.87336C74.3716 5.87336 74.6596 5.66413 74.76 5.35512L75.7867 2.19529Z" fill="#FCC640"/>
</svg>
