<svg width="31" height="29" viewBox="0 0 31 29" fill="none" xmlns="http://www.w3.org/2000/svg">
<rect width="31" height="29" rx="3" fill="#E3F0FF"/>
<path d="M18.754 13C19.72 13 20.504 13.784 20.504 14.75V19.499C20.504 20.6927 20.0298 21.8376 19.1857 22.6817C18.3416 23.5258 17.1967 24 16.003 24C14.8093 24 13.6644 23.5258 12.8203 22.6817C11.9762 21.8376 11.502 20.6927 11.502 19.499V14.75C11.502 13.784 12.285 13 13.252 13H18.754ZM18.754 14.5H13.252C13.1857 14.5 13.1221 14.5263 13.0752 14.5732C13.0283 14.6201 13.002 14.6837 13.002 14.75V19.499C13.002 20.2949 13.3182 21.0582 13.881 21.621C14.4438 22.1838 15.2071 22.5 16.003 22.5C16.7989 22.5 17.5622 22.1838 18.125 21.621C18.6878 21.0582 19.004 20.2949 19.004 19.499V14.75C19.004 14.6837 18.9777 14.6201 18.9308 14.5732C18.8839 14.5263 18.8203 14.5 18.754 14.5ZM7.75 13H11.131C10.7783 13.4262 10.5629 13.9491 10.513 14.5H7.75C7.6837 14.5 7.62011 14.5263 7.57322 14.5732C7.52634 14.6201 7.5 14.6837 7.5 14.75V17.999C7.49974 18.3769 7.58519 18.75 7.7499 19.0902C7.91461 19.4304 8.1543 19.7288 8.45095 19.9629C8.7476 20.1971 9.09349 20.361 9.4626 20.4422C9.83171 20.5235 10.2144 20.52 10.582 20.432C10.667 20.936 10.822 21.417 11.035 21.864C10.7043 21.954 10.3593 21.9993 10 22C9.47463 22 8.9544 21.8965 8.46904 21.6954C7.98367 21.4943 7.54267 21.1996 7.17122 20.8281C6.79977 20.4565 6.50516 20.0155 6.3042 19.53C6.10324 19.0446 5.99987 18.5244 6 17.999V14.75C6 13.784 6.784 13 7.75 13ZM20.875 13H24.25C25.216 13 26 13.784 26 14.75V18C26.0001 18.6132 25.8593 19.2182 25.5884 19.7682C25.3175 20.3183 24.9237 20.7987 24.4376 21.1724C23.9514 21.546 23.3858 21.8029 22.7846 21.9232C22.1833 22.0435 21.5625 22.0239 20.97 21.866C21.184 21.418 21.339 20.937 21.425 20.433C21.6097 20.477 21.8013 20.4993 22 20.5C22.663 20.5 23.2989 20.2366 23.7678 19.7678C24.2366 19.2989 24.5 18.663 24.5 18V14.75C24.5 14.6837 24.4737 14.6201 24.4268 14.5732C24.3799 14.5263 24.3163 14.5 24.25 14.5H21.493C21.4431 13.9491 21.2277 13.4262 20.875 13ZM16 6C16.7956 6 17.5587 6.31607 18.1213 6.87868C18.6839 7.44129 19 8.20435 19 9C19 9.79565 18.6839 10.5587 18.1213 11.1213C17.5587 11.6839 16.7956 12 16 12C15.2044 12 14.4413 11.6839 13.8787 11.1213C13.3161 10.5587 13 9.79565 13 9C13 8.20435 13.3161 7.44129 13.8787 6.87868C14.4413 6.31607 15.2044 6 16 6ZM22.5 7C23.163 7 23.7989 7.26339 24.2678 7.73223C24.7366 8.20107 25 8.83696 25 9.5C25 10.163 24.7366 10.7989 24.2678 11.2678C23.7989 11.7366 23.163 12 22.5 12C21.837 12 21.2011 11.7366 20.7322 11.2678C20.2634 10.7989 20 10.163 20 9.5C20 8.83696 20.2634 8.20107 20.7322 7.73223C21.2011 7.26339 21.837 7 22.5 7ZM9.5 7C10.163 7 10.7989 7.26339 11.2678 7.73223C11.7366 8.20107 12 8.83696 12 9.5C12 10.163 11.7366 10.7989 11.2678 11.2678C10.7989 11.7366 10.163 12 9.5 12C8.83696 12 8.20107 11.7366 7.73223 11.2678C7.26339 10.7989 7 10.163 7 9.5C7 8.83696 7.26339 8.20107 7.73223 7.73223C8.20107 7.26339 8.83696 7 9.5 7ZM16 7.5C15.6022 7.5 15.2206 7.65804 14.9393 7.93934C14.658 8.22064 14.5 8.60218 14.5 9C14.5 9.39782 14.658 9.77936 14.9393 10.0607C15.2206 10.342 15.6022 10.5 16 10.5C16.3978 10.5 16.7794 10.342 17.0607 10.0607C17.342 9.77936 17.5 9.39782 17.5 9C17.5 8.60218 17.342 8.22064 17.0607 7.93934C16.7794 7.65804 16.3978 7.5 16 7.5ZM22.5 8.5C22.2348 8.5 21.9804 8.60536 21.7929 8.79289C21.6054 8.98043 21.5 9.23478 21.5 9.5C21.5 9.76522 21.6054 10.0196 21.7929 10.2071C21.9804 10.3946 22.2348 10.5 22.5 10.5C22.7652 10.5 23.0196 10.3946 23.2071 10.2071C23.3946 10.0196 23.5 9.76522 23.5 9.5C23.5 9.23478 23.3946 8.98043 23.2071 8.79289C23.0196 8.60536 22.7652 8.5 22.5 8.5ZM9.5 8.5C9.23478 8.5 8.98043 8.60536 8.79289 8.79289C8.60536 8.98043 8.5 9.23478 8.5 9.5C8.5 9.76522 8.60536 10.0196 8.79289 10.2071C8.98043 10.3946 9.23478 10.5 9.5 10.5C9.76522 10.5 10.0196 10.3946 10.2071 10.2071C10.3946 10.0196 10.5 9.76522 10.5 9.5C10.5 9.23478 10.3946 8.98043 10.2071 8.79289C10.0196 8.60536 9.76522 8.5 9.5 8.5Z" fill="#003AC6"/>
</svg>
