<svg width="148" height="60" viewBox="0 0 148 60" fill="none" xmlns="http://www.w3.org/2000/svg">
<path d="M46.2968 0H17.7032C10.6874 0 5 5.58211 5 12.468V40.532C5 47.4179 10.6874 53 17.7032 53H46.2968C53.3126 53 59 47.4179 59 40.532V12.468C59 5.58211 53.3126 0 46.2968 0Z" fill="white"/>
<path d="M15.6025 7H13.8193L16.3889 8.84202C16.5064 8.76325 16.6252 8.68125 16.7446 8.5969C16.4438 8.02838 16.0666 7.49967 15.6025 7ZM51.4603 24.0747C50.2498 23.781 49.0783 23.3519 47.8582 22.75C48.1876 25.1725 48.1436 27.3957 47.726 29.5094C47.2785 31.7786 46.4595 33.7403 45.2917 35.3405C44.0437 37.0501 42.3588 38.4038 40.2833 39.3648C39.4349 39.7574 38.5627 40.1701 37.7028 40.6339C37.0388 40.9918 36.3825 41.3801 35.7493 41.813L30.9999 49.9328L29.0132 46.5356C28.6697 47.2704 28.3665 48.0517 28.0976 48.8912C27.9981 49.2037 27.9036 49.522 27.8161 49.8377C27.654 50.4225 27.5071 51.0319 27.3667 51.7006C27.2882 52.0748 27.2103 52.4492 27.1298 52.8386L27.1158 52.9048L27.0461 53.24L30.9999 60L51.9441 24.192L51.4603 24.0747ZM17.6365 27.0851C17.6058 27.0996 17.5751 27.1147 17.5445 27.1298C17.0287 27.3875 16.7643 27.6649 16.6328 28.0876C16.5103 28.4796 16.334 28.8293 16.1642 29.1671L16.1087 29.2781C16.0155 29.4627 15.8425 29.8068 15.5258 30.0438C15.3815 30.1508 14.9991 30.3998 14.5644 30.3998C14.4417 30.3998 14.3236 30.3803 14.2133 30.3405L14.2113 30.3399L14.2094 30.3393C14.0261 30.2738 13.8773 30.1598 13.7587 30.0236C13.6974 30.0835 13.6329 30.1395 13.5645 30.1905L19.479 40.3031C19.4809 39.925 19.5006 39.5487 19.5383 39.1731C19.5996 38.565 19.7101 37.9525 19.8652 37.3532C19.9041 37.2013 19.9469 37.0469 19.9922 36.8951C20.3242 35.7828 20.7935 34.6762 21.4146 33.5443L17.6365 27.0851ZM13.1777 12.0332L12.7423 11.5706L12.1306 10.9222L11.6358 10.3966L11.0166 9.74002L10.5219 9.21442L9.91021 8.56663L9.41418 8.04041L8.80316 7.39138L8.43418 7H0L8.89766 22.2125C9.3286 21.6038 9.76908 20.9894 10.2153 20.3756C10.4713 20.0239 10.7376 19.6773 10.9949 19.3414C11.4124 18.7969 11.8083 18.2796 12.1696 17.7383L8.83256 12.0332H13.1777ZM43.6714 7C43.8055 7.10768 43.9376 7.21932 44.0679 7.33394C45.3269 8.44494 46.2769 9.76892 47.1956 11.0495C47.4261 11.3709 47.6705 11.7017 47.9323 12.0332H53.1674L51.298 15.2289C51.3268 15.2937 51.3484 15.3649 51.3625 15.4412C51.3645 15.4513 51.3652 15.4557 51.3658 15.4588L51.6894 16.7356L50.5811 16.4546L49.0195 19.1246C49.5839 20.0478 50.2594 20.9937 51.1015 21.8174C51.2962 22.0077 51.5248 22.193 51.7661 22.3896C51.8944 22.4936 52.0272 22.6014 52.1657 22.7179L52.5947 23.0802L62 7H43.6714Z" fill="#368DE5"/>
<path d="M11.3159 5.83449L10.3266 7.54728L10.4153 7.6423L10.8006 8.05591L11.8571 6.22715L11.3159 5.83449ZM13.4504 7.38381L12.1962 9.55536L12.6195 10.0101L12.6664 10.0602L13.9872 7.77348L13.4504 7.38381ZM51.2726 23.0023C50.8721 22.6602 50.5014 22.3815 50.1743 22.0584C49.4131 21.3053 48.78 20.4596 48.2153 19.5658C47.8762 19.0299 47.5626 18.4769 47.2609 17.9162C46.7704 17.0028 46.3451 16.0539 45.8774 15.1284C45.5072 14.3975 45.1156 13.6772 44.7105 12.9069C45.0224 13.0558 45.3342 13.1812 45.6232 13.3478C46.7614 14.0016 47.8966 14.6616 49.1723 15.0258C49.5133 15.1227 49.8594 15.2031 50.2269 15.2975C50.2086 15.226 50.2104 15.1924 50.1965 15.1836C48.7236 14.277 47.6019 13.0266 46.5935 11.6634C46.463 11.4874 46.335 11.3087 46.2075 11.1295C45.3031 9.85301 44.3981 8.57913 43.2212 7.52696C42.8359 7.18305 42.4366 6.87581 42.0221 6.6041C40.5618 5.64507 38.9217 5.12747 37.116 5.02609C36.7891 5.00776 36.4608 5.00203 36.1331 5.00203C35.581 5.00203 35.0297 5.01849 34.4814 5.01849C34.967 4.52632 36.0108 4.17543 37.5299 3.94861C37.116 3.85484 36.7035 3.75297 36.2878 3.66867C34.6215 3.33038 32.9667 3.15743 31.3253 3.15743C28.5874 3.15743 25.8857 3.63887 23.2212 4.6378C23.1681 4.65812 23.0926 4.67084 23.0229 4.67084C22.9481 4.67084 22.879 4.65625 22.8492 4.62258C21.8352 3.45707 20.5176 2.76152 19.0954 2.27883C17.9819 1.90063 16.8227 1.65748 15.6838 1.35597C15.6699 1.3521 15.6553 1.34961 15.6395 1.34961C15.5989 1.34961 15.5501 1.36545 15.4753 1.41545C15.834 1.75948 16.2099 2.08568 16.5445 2.45116C16.8905 2.82811 17.2206 3.22526 17.511 3.64648C17.7898 4.05186 18.0079 4.49851 18.2157 4.96474C16.8094 4.34389 15.3428 4.23553 13.8339 4.21471C14.8662 4.89117 15.7858 5.66278 16.5198 6.6041C16.9552 7.16148 17.3253 7.77847 17.6143 8.46965C17.1865 8.77178 16.7784 9.07703 16.3467 9.34625C16.3347 9.35385 16.3183 9.35772 16.2992 9.35772C16.2124 9.35772 16.0691 9.28353 15.9848 9.22342L14.5006 8.14656L13.1158 10.5436L13.226 10.662L13.7185 11.1908L13.9993 11.4924C14.0569 11.5538 14.0975 11.6089 14.1184 11.6634C14.1557 11.7566 14.138 11.8504 14.0569 11.9795C13.8611 12.2912 13.7007 12.6276 13.5505 12.9652C13.3224 13.4821 13.2977 14.0035 13.4428 14.5672C13.7292 15.684 13.4403 16.7406 12.8413 17.6749C12.7368 17.837 12.6297 17.9973 12.5188 18.1564C11.9655 18.9564 11.3501 19.7166 10.7816 20.5084C10.2714 21.2178 9.76691 21.9318 9.26813 22.6494C9.07288 22.9301 8.87838 23.2119 8.68501 23.4938C8.28579 24.076 8.27306 24.7094 8.45695 25.3808C8.54566 25.7045 8.60142 26.0732 8.53805 26.3951C8.38397 27.1684 8.58807 27.8279 9.0881 28.3853C9.82454 29.2057 10.7486 29.5895 11.8019 29.5895C11.9484 29.5895 12.0972 29.5819 12.2481 29.5674C12.5758 29.5356 12.8495 29.4191 13.0657 29.2234C13.2305 29.0739 13.3623 28.8781 13.4586 28.6381C13.6298 28.215 13.8339 27.8051 14.0658 27.4269C14.0658 27.8919 14.038 28.3581 14.0798 28.8186C14.0962 29.0029 14.23 29.2715 14.3757 29.3247C14.4004 29.3336 14.4283 29.3373 14.4581 29.3373C14.6084 29.3373 14.8086 29.2355 14.9385 29.1378C15.0913 29.0226 15.1958 28.8268 15.2845 28.6482C15.4588 28.2954 15.6432 27.9419 15.7586 27.5688C15.9716 26.8771 16.4311 26.4539 17.0603 26.1353C17.0774 26.1265 17.0953 26.1176 17.1124 26.1093C17.9901 25.6722 18.8805 25.4075 19.868 25.4075C19.9612 25.4075 20.0549 25.4094 20.1493 25.4145C20.2216 25.4182 20.2925 25.4195 20.3629 25.4195C22.0481 25.4195 23.1674 24.3946 24.0224 23.0218C24.5858 22.1179 24.8887 21.1196 24.9128 20.0491C24.9356 20.0479 24.9585 20.0421 24.9731 20.0421C24.9799 20.0421 24.985 20.0434 24.9883 20.0465C25.8894 21.0373 26.6303 22.1262 26.9668 23.4418C27.396 25.1212 26.8883 26.6065 25.9237 27.9602C25.2607 28.8921 24.5344 29.7808 23.855 30.7019C23.7556 30.8368 23.6572 30.9717 23.5603 31.1085C23.3278 31.4354 23.1015 31.7654 22.8835 32.0999C22.4627 32.746 22.0722 33.408 21.7236 34.0921C21.2711 34.9801 20.889 35.9044 20.6026 36.8767C20.56 37.0205 20.5207 37.1643 20.484 37.3088C20.337 37.8826 20.2368 38.4547 20.1804 39.0222C20.0936 39.8913 20.1088 40.7528 20.2191 41.6068C20.375 42.8261 20.723 44.0309 21.2388 45.2231C22.4132 47.9362 24.1498 50.2806 26.0416 52.5224C26.0561 52.5394 26.0809 52.5483 26.1462 52.5889C26.1835 52.409 26.2196 52.2316 26.2552 52.0568C26.302 51.8281 26.3483 51.6026 26.3952 51.377C26.5295 50.7298 26.6797 50.0887 26.8534 49.4565C26.9427 49.1271 27.0392 48.8002 27.1411 48.4759C27.4625 47.463 27.8485 46.4736 28.3238 45.5183C28.5817 44.9982 28.8656 44.4889 29.18 43.9898C29.3144 43.7763 29.4538 43.5666 29.5977 43.3614C29.7453 43.1511 29.8975 42.9458 30.0545 42.7431C30.9101 41.6333 31.8963 40.6375 32.9357 39.6893C34.3116 38.4344 35.7174 37.2112 37.0597 35.9222C38.3208 34.7097 39.2601 33.2603 39.904 31.6274C39.9294 31.5634 39.9624 31.5025 39.9914 31.4411C40.0225 31.448 40.0536 31.4563 40.084 31.4633C40.0169 31.832 39.9737 32.2076 39.8787 32.5687C39.5725 33.7329 38.9319 34.7267 38.2321 35.6814C37.322 36.9224 36.3676 38.1323 35.4752 39.3864C35.045 39.9915 34.7122 40.6667 34.3269 41.3248C34.4086 41.3508 34.4422 41.368 34.4567 41.368C34.4593 41.368 34.4612 41.368 34.4631 41.3666C35.0658 40.9125 35.6939 40.5032 36.3397 40.1244C37.4115 39.4954 38.5294 38.9506 39.655 38.4237C43.6559 36.548 45.7823 33.3003 46.6049 29.0796C47.0505 26.7903 47.0188 24.503 46.6822 22.2193C46.6321 21.874 46.5739 21.5282 46.5099 21.183C46.5017 21.1373 46.4953 21.0917 46.4756 20.9746C46.7076 21.1114 46.9395 21.2438 47.1727 21.3705C48.4752 22.0831 49.8086 22.6431 51.2726 23.0023ZM15.7218 14.9828L16.0463 13.8274L17.4914 13.3326L17.9039 14.1573L15.7218 14.9828ZM12.3762 6.6041L12.3711 6.60023L11.2506 8.53923L11.5136 8.82178L11.7462 9.07205L12.9364 7.01073L12.3762 6.6041ZM10.3089 5.1034L9.44491 6.59899L9.4494 6.6041L9.87657 7.06335L10.8019 5.46128L10.3089 5.1034Z" fill="black"/>
<path d="M9.79583 4.73075L8.99601 6.1161L8.82422 5.9318L8.51931 5.60498C6.9717 3.94081 5.42471 2.27677 3.8776 0.612101C3.799 0.527808 3.72552 0.437903 3.64941 0.350493C3.65902 0.349121 3.6685 0.349121 3.67736 0.349121C3.75783 0.349121 3.80162 0.379546 3.84404 0.410595C5.48809 1.60404 7.13201 2.79749 8.77544 3.99032V3.98957L9.79583 4.73075Z" fill="#368DE5"/>
<path d="M79.6547 16.8973C79.6547 16.7574 79.5699 16.687 79.4 16.687C79.0561 16.687 78.5358 16.7016 77.8406 16.7314C77.1452 16.7602 76.626 16.7745 76.2811 16.7745C76.1347 16.7745 76.0618 16.8648 76.0618 17.0463C76.0618 17.8929 76.0824 19.1628 76.1231 20.8559C76.1645 22.5491 76.1846 23.8189 76.1846 24.6655C76.1846 25.827 75.5859 26.4083 74.3884 26.4083C73.5704 26.4083 73.033 26.1888 72.7767 25.7512C72.5834 25.43 72.4877 24.8108 72.4877 23.8948C72.4877 23.1239 72.512 21.9696 72.5616 20.4309C72.5636 20.3739 72.5653 20.3171 72.5671 20.261H69.1113C69.1656 21.4543 69.1927 22.3613 69.1927 22.984C69.1927 23.2169 69.1837 23.5707 69.1664 24.0436C69.1493 24.5165 69.1403 24.8721 69.1403 25.1122C69.1403 26.1457 69.2162 26.8631 69.3678 27.2665C69.6713 28.0898 70.3322 28.6475 71.3481 28.9389C71.9848 29.1194 72.8931 29.2106 74.0733 29.2106C76.6838 29.2106 78.3165 28.7142 78.9712 27.7215C79.327 27.179 79.5056 26.1628 79.5056 24.6737C79.5056 24.4867 79.5029 24.2053 79.4967 23.8289C79.4912 23.4524 79.4875 23.171 79.4875 22.984C79.4875 22.3063 79.5156 21.2909 79.5716 19.9362C79.6267 18.5815 79.6547 17.5688 79.6547 16.8973Z" fill="white"/>
<path d="M72.6354 16.9677C72.6354 17.5445 72.6218 18.3378 72.5937 19.346H69.0695C69.0226 18.2837 69 17.4678 69 16.8973C69 16.7574 69.0605 16.687 69.1833 16.687C69.5399 16.687 70.079 16.7016 70.8005 16.7314C71.5212 16.7602 72.0601 16.7745 72.4168 16.7745C72.5632 16.7745 72.6354 16.8387 72.6354 16.9677Z" fill="#368DE5"/>
<path d="M92.9552 16.9588C92.9552 17.6245 92.9274 18.6244 92.8719 19.9584C92.8165 21.2925 92.7886 22.2953 92.7886 22.9666V28.7378C92.7886 28.8956 92.704 28.9743 92.5345 28.9743C92.3943 28.9743 92.1826 28.98 91.8992 28.9919C91.6158 29.0035 91.4041 29.0094 91.264 29.0094C91.112 29.0094 90.8842 28.9977 90.5806 28.9743C90.2768 28.951 90.0489 28.9393 89.8971 28.9393C89.792 28.9393 89.6663 28.843 89.5203 28.6503C89.0997 28.084 88.1535 26.8287 86.6815 24.8844C86.2785 24.3415 85.6652 23.5416 84.8415 22.4849C84.818 22.4499 84.7742 22.4149 84.71 22.3797C84.6631 22.4208 84.6399 22.485 84.6399 22.5723C84.6399 23.2496 84.6588 24.2654 84.6969 25.6199C84.7349 26.9746 84.754 27.9904 84.754 28.6676C84.754 28.872 84.6751 28.9742 84.5173 28.9742H81.4856C81.3161 28.9742 81.2314 28.8837 81.2314 28.7026C81.2314 28.0721 81.2622 27.1205 81.3235 25.8477C81.3848 24.5749 81.4156 23.6204 81.4156 22.9839C81.4156 22.3126 81.3877 21.3085 81.3323 19.9713C81.2768 18.6343 81.249 17.6331 81.249 16.9674C81.249 16.839 81.3628 16.7748 81.5907 16.7748C81.9294 16.7748 82.3472 16.7515 82.8437 16.7048C82.9605 16.6931 83.1911 16.6552 83.536 16.591C83.8279 16.5385 84.0586 16.5122 84.2281 16.5122C84.2981 16.5122 84.4062 16.6116 84.5523 16.81L87.8205 21.2851C88.1124 21.688 88.5534 22.2778 89.1435 23.0541C89.2895 23.2352 89.4152 23.3257 89.5203 23.3257C89.5962 23.3257 89.6342 23.0981 89.6342 22.6427C89.6342 22.0298 89.6005 21.1073 89.5334 19.8754C89.4662 18.6436 89.4325 17.7181 89.4325 17.0993C89.4325 16.8834 89.4938 16.7752 89.6167 16.7752C89.9672 16.7752 90.4958 16.7606 91.2025 16.7314C91.9093 16.7023 92.4379 16.6877 92.7885 16.6877C92.8994 16.6877 92.9549 16.7783 92.9549 16.9592L92.9552 16.9588Z" fill="white"/>
<path d="M98.2322 22.5025C98.2322 23.1915 98.2497 24.2277 98.2847 25.6114C98.3197 26.9951 98.3373 28.0315 98.3373 28.7203C98.3373 28.8372 98.311 28.9102 98.2582 28.9394C98.2466 28.9452 98.1707 28.9569 98.0305 28.9744C97.6508 29.0211 97.1425 29.0444 96.506 29.0444C95.6532 29.0444 95.1098 29.0209 94.8763 28.9744C94.7067 28.9394 94.6221 28.8489 94.6221 28.7028C94.6221 28.7962 94.6483 28.2824 94.7009 27.1614C94.8062 24.7969 94.8587 23.244 94.8587 22.5023C94.8587 21.8777 94.8381 20.9406 94.7974 19.6912C94.7566 18.4419 94.7361 17.5049 94.7361 16.8801C94.7361 16.7517 94.8033 16.6875 94.9376 16.6875C95.1186 16.6875 95.3916 16.6963 95.7569 16.7138C96.1218 16.7313 96.3951 16.74 96.5761 16.74C96.7571 16.74 97.0243 16.7313 97.3778 16.7138C97.7312 16.6963 97.9982 16.6875 98.1794 16.6875C98.3487 16.6875 98.4336 16.7519 98.4336 16.8801C98.4336 17.5049 98.3999 18.4419 98.3328 19.6912C98.2656 20.9406 98.232 21.8777 98.232 22.5023L98.2322 22.5025Z" fill="#368DE5"/>
<path d="M110.164 26.9949C110.164 27.0884 110.102 27.211 109.98 27.3627C108.905 28.6413 107.477 29.2808 105.695 29.2808C103.913 29.2808 102.395 28.6589 101.262 27.4154C100.158 26.2127 99.6055 24.6948 99.6055 22.8614C99.6055 21.028 100.146 19.5803 101.226 18.3425C102.354 17.0464 103.788 16.3984 105.529 16.3984C107.421 16.3984 108.905 16.9795 109.98 18.1412C110.097 18.2698 110.155 18.3836 110.155 18.4828C110.155 18.5937 109.952 19.0053 109.546 19.7176C109.14 20.43 108.884 20.8299 108.779 20.9175C108.732 20.9644 108.674 20.9875 108.604 20.9875C108.575 20.9875 108.429 20.8708 108.166 20.6372C107.851 20.357 107.541 20.138 107.237 19.9804C106.776 19.747 106.297 19.6301 105.8 19.6301C104.942 19.6301 104.255 19.9513 103.741 20.5934C103.268 21.189 103.032 21.9245 103.032 22.8003C103.032 23.6761 103.268 24.4322 103.741 25.0335C104.255 25.6875 104.941 26.0143 105.8 26.0143C106.309 26.0143 106.79 25.9034 107.246 25.6814C107.544 25.5355 107.848 25.3311 108.157 25.0683C108.414 24.8465 108.557 24.7356 108.587 24.7356C108.645 24.7356 108.703 24.7677 108.762 24.8319C108.855 24.937 109.109 25.3019 109.524 25.9265C109.95 26.5747 110.164 26.9307 110.164 26.9949Z" fill="white"/>
<path d="M123.154 22.842C123.154 24.6635 122.572 26.1904 121.41 27.4221C120.224 28.6715 118.723 29.2962 116.906 29.2962C115.09 29.2962 113.603 28.6657 112.412 27.4046C111.243 26.1729 110.659 24.6519 110.659 22.842C110.659 21.0321 111.243 19.4994 112.412 18.2617C113.603 16.9949 115.101 16.3613 116.906 16.3613C118.711 16.3613 120.195 16.9949 121.393 18.2617C122.567 19.5111 123.154 21.0378 123.154 22.842ZM119.833 22.8243C119.833 21.9485 119.567 21.2041 119.035 20.5911C118.48 19.949 117.771 19.6278 116.906 19.6278C116.042 19.6278 115.384 19.9605 114.812 20.6261C114.257 21.2685 113.98 22.0071 113.98 22.8418C113.98 23.735 114.239 24.4793 114.76 25.075C115.309 25.6998 116.024 26.012 116.906 26.012C117.73 26.012 118.431 25.6823 119.009 25.0224C119.558 24.392 119.833 23.6592 119.833 22.8243Z" fill="white"/>
<path d="M135.03 28.8863C135.03 28.9274 134.972 28.9564 134.855 28.9739C134.633 29.0089 134.075 29.0264 133.181 29.0264C132.416 29.0264 131.896 29.0089 131.622 28.9739C131.493 28.9564 131.42 28.942 131.403 28.9301C131.368 28.9126 131.327 28.8542 131.28 28.755C131.192 28.5274 131.064 28.1888 130.895 27.7392C130.667 27.1554 130.31 26.2943 129.826 25.1557C129.721 24.9281 129.478 24.8024 129.098 24.7791C129.273 24.7908 128.973 24.7966 128.196 24.7966C128.108 24.7966 128.064 24.9454 128.064 25.2432C128.064 25.6403 128.101 26.2328 128.174 27.021C128.247 27.8092 128.283 28.402 128.283 28.7988C128.283 28.8982 128.257 28.9564 128.205 28.9739C128.123 28.9795 128.041 28.9855 127.959 28.9914C127.614 29.0147 127.077 29.0264 126.347 29.0264C125.512 29.0264 125.009 29.0089 124.84 28.9739C124.671 28.9389 124.586 28.8484 124.586 28.7023C124.586 28.0602 124.617 27.0909 124.678 25.7947C124.739 24.4986 124.77 23.5265 124.77 22.8784C124.77 20.4087 124.715 18.4821 124.604 17.0984L124.595 16.9759C124.589 16.8767 124.681 16.8095 124.871 16.7745C125.061 16.7395 125.953 16.7045 127.548 16.6693C128.628 16.646 129.49 16.6343 130.133 16.6343C131.464 16.6343 132.551 16.935 133.392 17.5363C134.344 18.2136 134.82 19.1915 134.82 20.4701C134.82 21.3228 134.697 22.0028 134.452 22.5107C134.207 23.0186 133.754 23.5121 133.094 23.9907C132.959 24.0841 132.893 24.1718 132.893 24.2535C132.893 24.2478 133.249 24.9804 133.961 26.4516C134.674 27.9228 135.03 28.7344 135.03 28.8861L135.03 28.8863ZM131.35 21.031C131.35 20.3188 131.116 19.8255 130.649 19.5508C130.287 19.3407 129.72 19.2355 128.949 19.2355C128.394 19.2355 128.099 19.3201 128.064 19.4895C128.029 19.6882 128.012 20.2603 128.012 21.206C128.012 21.3405 128.014 21.5389 128.02 21.8015C128.026 22.0643 128.029 22.26 128.029 22.3884C128.029 22.4176 128.122 22.4467 128.309 22.4759C128.665 22.5284 129.04 22.5549 129.431 22.5549C130.71 22.5549 131.35 22.047 131.35 21.0312L131.35 21.031Z" fill="white"/>
<path d="M147.743 16.9588C147.743 17.6245 147.716 18.6244 147.66 19.9584C147.605 21.2925 147.577 22.2953 147.577 22.9666V28.7378C147.577 28.8956 147.492 28.9743 147.323 28.9743C147.182 28.9743 146.971 28.98 146.687 28.9919C146.404 29.0035 146.192 29.0094 146.052 29.0094C145.9 29.0094 145.672 28.9977 145.369 28.9743C145.065 28.951 144.837 28.9393 144.685 28.9393C144.58 28.9393 144.454 28.843 144.308 28.6503C143.888 28.084 142.942 26.8287 141.47 24.8844C141.067 24.3415 140.453 23.5416 139.63 22.4849C139.606 22.4499 139.562 22.4149 139.498 22.3797C139.451 22.4208 139.428 22.485 139.428 22.5723C139.428 23.2496 139.447 24.2654 139.485 25.6199C139.523 26.9746 139.542 27.9904 139.542 28.6676C139.542 28.872 139.463 28.9742 139.305 28.9742H136.274C136.104 28.9742 136.02 28.8837 136.02 28.7026C136.02 28.0721 136.05 27.1205 136.112 25.8477C136.173 24.5749 136.204 23.6204 136.204 22.9839C136.204 22.3126 136.176 21.3085 136.12 19.9713C136.065 18.6343 136.037 17.6331 136.037 16.9674C136.037 16.839 136.151 16.7748 136.379 16.7748C136.717 16.7748 137.135 16.7515 137.632 16.7048C137.749 16.6931 137.979 16.6552 138.324 16.591C138.616 16.5385 138.847 16.5122 139.016 16.5122C139.086 16.5122 139.194 16.6116 139.34 16.81L142.609 21.2851C142.9 21.688 143.342 22.2778 143.932 23.0541C144.078 23.2352 144.203 23.3257 144.308 23.3257C144.384 23.3257 144.422 23.0981 144.422 22.6427C144.422 22.0298 144.389 21.1073 144.321 19.8754C144.254 18.6436 144.221 17.7181 144.221 17.0993C144.221 16.8834 144.282 16.7752 144.405 16.7752C144.755 16.7752 145.284 16.7606 145.991 16.7314C146.697 16.7023 147.226 16.6877 147.577 16.6877C147.687 16.6877 147.743 16.7783 147.743 16.9592L147.743 16.9588Z" fill="white"/>
<path d="M95.2698 34.4235H92.208V32.3154H100.847V34.4235H97.7848V43.4336H95.2698V34.4235Z" fill="#368DE5"/>
<path d="M102.673 32.3154H109.643V34.4235H105.188V36.6561H108.98V38.7642H105.188V41.3257H109.814V43.4338H102.673V32.3156V32.3154Z" fill="white"/>
<path d="M111.5 37.939C111.5 34.2502 113.94 32.1108 116.751 32.1108C118.189 32.1108 119.347 32.7872 120.096 33.5538L118.771 35.1659C118.212 34.6463 117.612 34.281 116.807 34.281C115.282 34.281 114.077 35.6253 114.077 37.8544C114.077 40.0835 115.141 41.4679 116.767 41.4679C117.68 41.4679 118.399 41.0184 118.943 40.4286L120.269 42.0066C119.345 43.0804 118.116 43.6383 116.677 43.6383C113.856 43.6383 111.5 41.6837 111.5 37.9387V37.939Z" fill="white"/>
<path d="M121.959 32.3154H124.474V36.5999H128.314V32.3154H130.829V43.4336H128.314V38.7922H124.474V43.4336H121.959V32.3154Z" fill="white"/>
</svg>
