<svg width="31" height="29" viewBox="0 0 31 29" fill="none" xmlns="http://www.w3.org/2000/svg">
<rect width="31" height="29" rx="5" fill="#E3F0FF"/>
<path d="M4.69043 9.99702C7.88972 7.4057 11.8833 5.99433 16.0004 6.00002C20.2854 6.00002 24.2204 7.49702 27.3104 9.99702L26.0544 11.553C23.2108 9.24888 19.6604 7.99421 16.0004 8.00002C12.1904 8.00002 8.69443 9.33002 5.94643 11.553L4.69043 9.99702ZM7.83143 13.887C10.1422 12.0153 13.0267 10.9959 16.0004 11C18.974 10.9956 21.8585 12.0147 24.1694 13.886L22.9124 15.442C20.9574 13.8581 18.5166 12.9957 16.0004 13C13.3824 13 10.9774 13.915 9.08843 15.442L7.83143 13.887ZM10.9734 17.777C12.3954 16.6251 14.1704 15.9977 16.0004 16C17.9044 16 19.6534 16.665 21.0274 17.776L19.7704 19.332C18.7038 18.4686 17.3727 17.9983 16.0004 18C14.5724 18 13.2604 18.499 12.2304 19.332L10.9734 17.777ZM14.1154 21.667C14.649 21.2357 15.3143 21.0003 16.0004 21C16.7144 21 17.3704 21.25 17.8854 21.666L16.0004 24L14.1154 21.667Z" fill="#003AC6"/>
</svg>
