<svg width="54" height="78" viewBox="0 0 54 78" fill="none" xmlns="http://www.w3.org/2000/svg">
<path d="M41.0438 10.8978V8.12619C41.2409 8.12619 41.4253 8.12619 41.6097 8.12619C44.1227 8.12619 46.6346 8.11692 49.1477 8.12619C51.9379 8.13663 53.9987 10.2148 53.9987 13.0108C53.9998 33.0526 54.001 53.0944 53.9987 73.1361C53.9987 75.8382 51.8811 77.9048 49.0885 77.9059C37.0289 77.9117 24.9681 77.9082 12.9085 77.9082C10.2992 77.9082 7.68991 77.9082 5.0806 77.9082C2.00742 77.9094 0 75.9066 0 72.845C0 52.939 0 33.0317 0 13.1256C0 10.173 2.03294 8.12851 4.97043 8.12619C7.40578 8.12503 9.84113 8.12619 12.2765 8.12619C12.4852 8.12619 12.6928 8.12619 12.9375 8.12619V10.899C12.7346 10.899 12.5305 10.899 12.3263 10.899C9.87128 10.899 7.41738 10.899 4.96232 10.9013C3.58112 10.9025 2.76818 11.7131 2.76818 13.0989C2.76702 33.0445 2.76818 52.99 2.76818 72.9343C2.76818 74.3178 3.58344 75.1331 4.96463 75.1331C19.6533 75.1343 34.3407 75.1343 49.0294 75.1331C50.4535 75.1331 51.2293 74.3155 51.2293 72.8195C51.2293 54.5173 51.2293 36.2151 51.2293 17.9117C51.2293 16.3264 51.2328 14.7422 51.2293 13.1569C51.2247 11.6922 50.4338 10.8978 48.9772 10.8967C46.5616 10.8944 44.1459 10.8967 41.7291 10.8967C41.5192 10.8967 41.3105 10.8967 41.0414 10.8967L41.0438 10.8978Z" fill="#8E90FF"/>
<path d="M14.4805 13.6376V5.59396H19.8962C20.0307 3.56566 21.0559 2.1462 22.7027 1.16046C24.3077 0.200239 26.0588 -0.146512 27.9213 0.0552745C29.2271 0.196757 30.4436 0.585257 31.5418 1.31354C33.0402 2.30856 33.9633 3.65959 34.0943 5.55801H39.4846V13.6376H14.4805ZM28.7679 2.67386C28.7679 1.68 28.0141 0.914609 27.0306 0.907651C26.0032 0.899533 25.2343 1.65681 25.2354 2.67386C25.2366 3.68627 26.0298 4.47486 27.0295 4.45862C28.0013 4.44239 28.769 3.65496 28.7679 2.67386Z" fill="#8E90FF"/>
<path d="M23.4044 53.549C25.0558 56.2151 24.7241 60.2474 22.0452 62.8648C19.5658 65.2874 15.326 65.7849 12.6309 63.9155C13.932 61.7538 15.2332 59.5898 16.539 57.4293C16.5958 57.3354 16.6805 57.2426 16.7756 57.1893C18.9836 55.9716 21.1952 54.7597 23.4044 53.5479V53.549Z" fill="#8E90FF"/>
<path d="M46.1263 22.0596V23.7075H7.88672V22.0596H46.1252H46.1263Z" fill="#8E90FF"/>
<path d="M46.1075 20.1794H7.90039V18.5547H46.1075V20.1794Z" fill="#8E90FF"/>
<path d="M46.0977 43.572H42.6465V32.4482H46.0977V43.572Z" fill="#8E90FF"/>
<path d="M26.5859 49.3558V47.7148H46.0989V49.3558H26.5859Z" fill="#8E90FF"/>
<path d="M26.5801 56.6598V55.0049H46.0907V56.6598H26.5801Z" fill="#8E90FF"/>
<path d="M26.5879 63.9579V62.3076H46.1078V63.9579H26.5879Z" fill="#8E90FF"/>
<path d="M26.5879 51.2588H46.1066V52.9125H26.5879V51.2588Z" fill="#8E90FF"/>
<path d="M26.584 58.5498H46.1074V60.207H26.584V58.5498Z" fill="#8E90FF"/>
<path d="M17.0449 55.9883V48.296C19.3585 47.9458 22.652 49.879 23.7932 52.2819C21.5654 53.5054 19.333 54.7323 17.0449 55.9883Z" fill="#8E90FF"/>
<path d="M46.1153 65.8555V67.479H26.6035V65.8555H46.1153Z" fill="#8E90FF"/>
<path d="M7.875 27.4933V25.835H24.3971V27.4933H7.875Z" fill="#8E90FF"/>
<path d="M24.4053 29.3643V31.018H7.88672V29.3643H24.4053Z" fill="#8E90FF"/>
<path d="M24.4021 36.6787V38.315H7.9043V36.6787H24.4021Z" fill="#8E90FF"/>
<path d="M24.3992 43.9727V45.6217H7.89453V43.9727H24.3981H24.3992Z" fill="#8E90FF"/>
<path d="M24.4031 42.0702H7.89258V40.3631C9.08126 40.3631 10.2688 40.3631 11.4563 40.3631C15.4654 40.3631 19.4744 40.3631 23.4835 40.3631C23.6771 40.3631 23.8801 40.3272 24.0598 40.377C24.1909 40.413 24.3787 40.5568 24.388 40.6646C24.4251 41.1204 24.4031 41.5808 24.4031 42.0702Z" fill="#8E90FF"/>
<path d="M44.2648 28.8396C44.1314 28.6668 44.0387 28.5462 43.8949 28.3595C44.644 28.1878 45.3433 28.0289 46.1458 27.8457C45.9127 28.5983 45.6982 29.2942 45.4651 30.0468C45.283 29.8984 45.1543 29.7928 44.9919 29.6595C44.1906 30.397 43.3834 31.1381 42.5786 31.8814C41.6288 32.7593 40.6767 33.6326 39.7385 34.5232C39.5031 34.747 39.3083 34.8178 38.9766 34.6937C37.6082 34.1799 36.2212 33.7172 34.8528 33.2058C34.4817 33.0678 34.2509 33.091 33.9679 33.4018C31.9953 35.5716 29.9994 37.7216 28.0129 39.8787C27.9224 39.9772 27.8459 40.0886 27.7207 40.2463C27.4249 39.9761 27.1768 39.7488 26.8984 39.4936C27.7984 38.509 28.6751 37.5442 29.5576 36.584C30.9168 35.1065 32.2864 33.6395 33.6339 32.1528C33.8983 31.8606 34.1048 31.7701 34.5048 31.9232C35.9046 32.4601 37.3241 32.9483 38.7412 33.4354C38.9105 33.4934 39.1923 33.5131 39.3002 33.4157C40.9574 31.9127 42.5937 30.3866 44.266 28.8396H44.2648Z" fill="#8E90FF"/>
<path d="M24.3985 33.1582V34.7377H7.89258V33.1582H24.3996H24.3985Z" fill="#8E90FF"/>
<path d="M32.4297 36.1777H35.9041V43.5371H32.4297V36.1777Z" fill="#8E90FF"/>
<path d="M40.9865 43.5706H37.541V37.1494H40.9865V43.5706Z" fill="#8E90FF"/>
<path d="M9.31944 52.6475C11.4127 54.1203 13.5071 55.5942 15.6258 57.0844C14.2852 59.3203 12.9632 61.5272 11.6411 63.7329C7.3874 61.2941 6.87134 55.5919 9.31944 52.6475ZM9.47716 53.6112C7.65181 56.66 8.63639 60.8755 11.4312 62.7252C12.5156 60.9172 13.5999 59.1116 14.7004 57.2769C12.947 56.0465 11.2329 54.8428 9.47716 53.6112Z" fill="#8E90FF"/>
<path d="M16.1231 48.1154C16.1231 50.6563 16.1231 53.1067 16.1219 55.556C16.1219 55.6279 16.1034 55.6986 16.079 55.8645C13.9556 54.3719 11.8844 52.9165 9.77148 51.4321C11.3742 49.3064 13.4419 48.2175 16.1231 48.1143V48.1154ZM15.3948 54.5355V48.9121C13.8084 48.9342 11.7441 50.0231 10.8233 51.3196C12.3251 52.3761 13.8269 53.4326 15.3948 54.5355Z" fill="#8E90FF"/>
<path d="M30.8057 40.9297V43.5529H27.3359V40.9297H30.8057Z" fill="#8E90FF"/>
</svg>
