<svg width="82" height="74" viewBox="0 0 82 74" fill="none" xmlns="http://www.w3.org/2000/svg">
<path d="M5.94679 45.0119C4.99531 45.0119 4.03955 45.0631 3.09233 45.0033C1.01869 44.871 0.0800017 43.894 0.0416009 41.7009C-0.013867 38.5733 -0.013867 35.4415 0.0416009 32.314C0.0800017 29.9246 1.04429 28.9945 3.42514 28.9049C4.24436 28.875 5.06784 28.9006 5.97666 28.4611C5.16171 27.9576 4.32969 27.484 3.53608 26.9507C2.01711 25.9267 1.5307 24.5016 2.40965 22.893C4.03955 19.902 5.74199 16.9494 7.52549 14.048C8.52391 12.4266 10.0002 12.017 11.7368 13.0026C12.5347 13.4549 13.3368 13.9029 14.715 14.6795C14.075 13.4763 13.7123 12.7723 13.3325 12.0768C12.0909 9.78125 12.428 8.4031 14.6467 7.0932C17.0276 5.68517 19.434 4.31554 21.8405 2.94591C24.8699 1.22214 25.8811 1.50375 27.656 4.52888C27.9078 4.95555 28.1723 5.37796 28.4411 5.7961C28.4667 5.8345 28.5521 5.83878 28.9659 5.97531C28.9659 4.93849 28.7355 3.91446 29.0257 3.06964C29.3841 2.02002 30.0412 0.437057 30.8006 0.28772C32.9212 -0.126155 35.1741 -0.0152222 37.3544 0.138381C37.6957 0.163982 38.1949 1.49094 38.1992 2.22056C38.2675 8.62069 38.2419 15.0208 38.2461 21.4167C38.2461 22.1762 38.2461 22.9357 38.2461 23.9127C40.3539 23.9127 42.1844 23.9554 44.0148 23.9042C46.5407 23.8317 48.337 24.8984 49.617 27.0701C49.9285 27.5992 50.6923 28.0046 51.3237 28.1667C52.0576 28.3544 52.8939 28.1027 53.6577 28.2307C55.855 28.5976 57.5063 27.7955 58.7906 26.0589C60.0322 24.3821 61.6408 23.7549 63.7613 23.917C66.1635 24.1005 68.5956 24.0408 71.0063 23.9085C71.6804 23.8701 72.521 23.3538 72.9306 22.7949C74.3173 20.8962 76.2885 20.0855 78.4902 20.7383C80.5766 21.3612 81.7628 22.9442 81.7969 25.1544C81.8311 27.4499 80.598 29.1651 78.4688 29.7795C76.2928 30.4067 74.3002 29.5705 72.905 27.676C72.4954 27.1171 71.6634 26.6435 70.9722 26.5581C69.5727 26.3875 68.1134 26.6648 66.7182 26.4728C63.3475 26.0077 60.6765 26.9293 58.5687 29.7113C58.0823 30.3513 56.8833 30.6457 55.983 30.7225C54.1526 30.8761 52.3008 30.7694 50.2869 30.7694V35.753C53.3846 35.753 56.4951 35.753 59.6012 35.753C60.8813 35.753 62.1869 35.9109 63.4328 35.6975C64.252 35.5567 65.2035 35.049 65.6984 34.4047C67.1193 32.5572 69.0606 31.7849 71.322 32.4676C73.3487 33.0777 74.5392 34.7418 74.5392 36.9562C74.5392 39.1749 73.353 40.8347 71.3263 41.4491C69.0777 42.1318 67.0937 41.3766 65.7155 39.5077C65.2846 38.9232 64.508 38.2405 63.868 38.2234C59.6738 38.1125 55.4796 38.1637 51.2853 38.1808C50.9483 38.1808 50.6112 38.3216 50.2059 38.4112V43.143C51.7547 43.143 53.2352 43.2668 54.6902 43.1131C56.7852 42.8913 58.445 43.5014 59.6738 45.1996C61.0007 47.0386 62.7501 47.7042 65.003 47.4311C66.3342 47.269 67.6996 47.397 69.0521 47.4012C70.8527 47.4055 72.4271 47.5719 73.6687 45.4769C74.9957 43.2326 78.7803 43.446 80.6278 45.4172C82.3985 47.3074 82.198 50.6397 80.2097 52.2995C78.1062 54.0531 74.6416 53.7502 73.2677 51.4419C72.521 50.1874 71.7146 49.8504 70.4047 49.9357C68.9881 50.0253 67.5417 49.8077 66.1422 49.9869C62.5709 50.4349 59.7207 49.5218 57.3484 46.6119C56.6871 45.8012 54.8139 45.8993 53.4785 45.7244C51.5328 45.4684 50.0011 45.6732 48.7808 47.8023C48.1109 48.9714 46.0244 49.6242 44.4671 49.9144C42.5556 50.2685 40.5289 49.9997 38.2589 49.9997C38.2589 51.3864 38.2589 52.5683 38.2589 53.7544C38.2589 59.7279 38.2077 65.7013 38.2845 71.6705C38.3059 73.454 37.6573 74.1709 35.9165 73.9661C33.9751 73.7399 31.5943 74.1367 30.2246 73.1383C29.0513 72.285 29.0342 69.8444 28.4966 68.0779C28.5222 68.0481 28.6161 68.0609 28.4966 68.0779C26.275 71.3008 23.4576 71.9266 20.0442 69.9553C18.3246 68.9612 16.6051 67.9627 14.8899 66.9601C12.3981 65.5008 12.0397 64.1995 13.4222 61.7034C13.7635 61.089 14.1091 60.4788 14.2243 59.5402C13.3539 60.0223 12.4877 60.513 11.613 60.9866C9.93621 61.9039 8.51538 61.4517 7.57669 59.9284C5.78892 57.0313 4.08222 54.0787 2.45659 51.0877C1.5307 49.3895 2.03844 47.9261 3.68541 46.8935C4.45769 46.4114 5.24278 45.9463 6.01933 45.4727C6.00226 45.3191 5.98092 45.1655 5.96386 45.0119H5.94679ZM24.537 4.28567C21.226 6.20998 18.1326 8.00628 14.9624 9.84952C15.7689 11.249 16.6734 12.3456 17.019 13.6C17.2409 14.4022 16.8228 15.5542 16.3363 16.3222C15.7774 17.2097 14.8856 17.8625 13.644 17.0433C12.4835 16.2753 11.2248 15.6651 9.88501 14.9142C7.99483 18.1996 6.20706 21.3015 4.36382 24.4973C5.50305 25.1458 6.40334 25.7005 7.34202 26.1869C8.66899 26.8739 9.33033 27.6078 8.86525 29.3699C8.40018 31.1449 7.46149 31.4478 5.95959 31.3454C5.32385 31.3028 4.67956 31.3753 4.04382 31.3326C2.85766 31.2516 2.37552 31.755 2.42245 32.954C2.48645 34.6564 2.43525 36.3631 2.43525 38.0698C2.43525 42.2043 2.43525 42.2641 6.4844 42.439C8.1783 42.5115 8.49831 43.5356 8.91219 44.8454C9.33033 46.1681 8.87379 46.8295 7.7943 47.414C6.64227 48.037 5.54145 48.7623 4.35529 49.4792C6.3052 52.8158 8.1143 55.9006 9.75274 58.7081C12.2445 58.6569 13.4605 55.1113 16.1187 57.3556C19.3103 60.0479 15.291 61.7375 15.227 64.2379C18.1966 65.9531 21.2943 67.7409 24.5413 69.614C25.1813 68.5387 25.7232 67.6427 26.2523 66.7382C27.4384 64.72 28.7185 64.208 30.502 65.6288C31.2316 66.2134 31.3895 67.8689 31.3255 69.0081C31.2103 70.9836 31.8631 71.7857 33.83 71.4828C34.3719 71.4017 34.9309 71.4017 35.5751 71.3591V59.0281C21.5973 57.283 15.4105 46.6503 15.1075 38.1808C14.6723 26.0504 21.1919 18.6433 35.5581 14.799V2.61737C31.4449 2.17362 31.3596 2.1779 31.462 5.88997C31.5089 7.60521 30.9372 8.37323 29.2603 8.8511C27.5323 9.34605 26.952 8.43296 26.2992 7.2596C25.7872 6.33798 25.2197 5.44196 24.5285 4.28994L24.537 4.28567ZM35.5922 17.6833C26.9051 17.8284 16.81 26.1187 17.642 38.4027C18.3887 49.3981 28.2705 56.4169 35.5453 56.1396V49.9997C33.3778 49.9997 31.398 50.0466 29.4225 49.9869C26.3163 49.893 24.0677 47.6786 24.0293 44.5681C23.9653 39.5291 23.9696 34.4858 24.025 29.4467C24.0592 26.2296 26.312 24.0152 29.542 23.9298C31.5132 23.8786 33.4844 23.9213 35.5922 23.9213V17.6833ZM26.167 28.9433C28.8763 30.2617 28.8934 30.5689 27.0587 32.1049C26.8368 32.2884 27.016 33.4959 27.3318 33.6751C28.7654 34.5028 28.8678 35.2282 27.3915 36.0175C26.1968 36.6533 26.1072 37.2293 27.3531 37.8821C28.8123 38.6501 28.8166 39.3541 27.3744 40.2288C27.0032 40.455 26.7942 41.6923 26.8155 41.7009C30.1308 43.015 27.8395 43.9409 26.2096 45.1825C27.191 46.0828 28.0827 46.902 29.0854 47.8237C30.3868 45.1271 30.5276 45.1399 32.2385 47.0258C32.4135 47.2178 33.5698 46.9404 33.8002 46.582C34.6365 45.2593 35.3703 45.1825 36.0872 46.5607C36.6845 47.7085 37.1709 47.9389 37.8963 46.6802C38.7837 45.1399 39.5688 45.1399 40.371 46.821C40.516 47.1282 41.7491 47.286 41.7747 47.2306C43.0377 44.039 43.9977 45.9889 45.1967 47.862C46.1652 46.838 46.9973 45.9548 47.9445 44.9564C45.2436 43.7105 45.2266 43.3777 47.0613 41.8118C47.2789 41.6283 47.0869 40.4422 46.7668 40.2459C45.3759 39.3968 45.2393 38.6757 46.7327 37.8949C47.9359 37.2677 47.9914 36.696 46.7668 36.0559C45.2906 35.2879 45.346 34.5839 46.737 33.705C47.1082 33.4703 47.3258 32.2457 47.3045 32.2372C44.0873 30.923 46.1695 29.9929 47.9317 28.7768C46.929 27.851 46.033 27.0232 45.0345 26.1016C43.6735 28.8366 43.5156 28.828 41.9028 26.9251C41.7321 26.7245 40.5502 26.9549 40.3368 27.2963C39.428 28.7512 38.6685 28.6702 37.9091 27.2707C37.2093 25.9864 36.7016 26.1869 36.1042 27.3432C35.3917 28.7257 34.6791 28.6744 33.813 27.3688C33.5655 26.9976 32.422 26.6904 32.2513 26.8739C30.4977 28.7512 30.5318 28.7811 28.8849 26.1059C27.959 27.0744 27.1227 27.9534 26.1798 28.939L26.167 28.9433ZM67.243 36.4399C67.243 36.777 67.2345 37.1184 67.2345 37.4554C68.1049 38.0528 68.9881 39.1237 69.8372 39.0981C70.5625 39.0768 71.642 37.8992 71.8682 37.0501C72.2223 35.7146 71.258 34.5839 69.8713 34.7631C68.9369 34.8868 68.1177 35.8511 67.243 36.4399ZM77.0565 27.3987C78.5414 27.4158 79.4886 26.524 79.2411 25.2269C79.0875 24.4162 78.0123 23.4093 77.1632 23.1831C75.8277 22.8247 74.889 23.725 74.8549 25.1885C74.8208 26.6392 75.6101 27.3731 77.0565 27.3987ZM76.8944 50.8573C78.4347 50.8829 79.1771 50.1149 79.2411 48.8093C79.3051 47.4055 78.6139 46.501 77.0992 46.501C75.7595 46.501 74.9274 47.1922 74.8634 48.5362C74.7952 49.9826 75.6016 50.7464 76.8944 50.8573Z" fill="#8E90FF"/>
<path d="M43.3319 37.0159C43.3105 40.6171 40.5542 43.2966 36.9232 43.2497C33.4287 43.2027 30.745 40.5061 30.7151 37.0117C30.6852 33.4446 33.4501 30.6713 37.0384 30.667C40.6524 30.667 43.3532 33.3935 43.3319 37.0159ZM40.8401 36.858C40.7889 34.7631 39.0694 33.099 36.9915 33.1289C34.9477 33.1588 33.177 34.938 33.1727 36.9562C33.1727 39.0597 35.0714 40.8688 37.1963 40.7835C39.2827 40.7024 40.8913 38.9658 40.8401 36.858Z" fill="#8E90FF"/>
</svg>
