<svg width="81" height="81" viewBox="0 0 81 81" fill="none" xmlns="http://www.w3.org/2000/svg">
<path d="M49.4838 60.8182C47.3423 61.6354 45.6927 62.3845 43.9712 62.8764C42.8475 63.198 42.454 63.7542 42.4313 64.859C42.401 66.4329 42.2837 68.0069 42.121 69.5695C41.9697 71.0451 41.073 71.8245 39.5974 71.8547C37.3916 71.9001 35.182 71.9607 32.98 71.8926C30.5926 71.8169 30.0137 71.2569 29.7375 68.8657C29.5786 67.4923 29.5407 66.1 29.4991 64.7152C29.4726 63.7088 29.1018 63.2207 28.0538 62.8877C26.1469 62.2786 24.2854 61.4651 22.4996 60.5495C21.512 60.0425 20.9142 60.2052 20.1878 60.9014C19.0981 61.9494 17.9479 62.9331 16.794 63.9131C15.6286 64.9044 14.3347 65.0141 13.2034 63.9736C11.444 62.3543 9.77549 60.629 8.10694 58.915C6.96053 57.7346 6.96052 56.4595 7.99722 55.1882C9.26092 53.6332 11.304 52.2068 11.5765 50.4966C11.83 48.8848 9.90034 47.046 9.51063 45.1845C9.01121 42.7895 7.67561 42.3393 5.55683 42.275C0.097169 42.1123 0.0896028 42.0404 0.00636472 36.5618C-0.0163366 35.1127 0.0252797 33.6636 0.0744658 32.2183C0.123652 30.8146 0.869016 29.986 2.27271 29.8498C3.89964 29.6909 5.53034 29.5396 7.16484 29.4942C8.19774 29.4639 8.6896 29.0817 9.03769 28.0677C9.71116 26.1117 10.676 24.2539 11.3684 22.3054C11.5689 21.7417 11.4667 20.8374 11.1262 20.3682C10.203 19.1007 9.06796 17.9921 8.03127 16.8003C6.95674 15.5631 6.93026 14.254 8.03883 13.0698C9.63549 11.3709 11.3154 9.7516 12.9764 8.11711C14.2287 6.88367 15.5303 6.91392 16.8318 8.04899C18.0198 9.08189 19.1398 10.2094 20.4148 11.1212C20.8915 11.4617 21.8034 11.5412 22.3747 11.3407C24.327 10.6521 26.2528 9.85752 28.1068 8.9419C28.7008 8.64678 29.3402 7.90525 29.4499 7.28096C29.7072 5.80159 29.6164 4.26544 29.7488 2.75959C29.9077 0.901872 30.8082 0.0695059 32.6849 0.0316704C34.8907 -0.00994859 37.0965 0.00141868 39.3023 0.00141868C40.9179 0.00141868 41.9621 0.720291 42.1135 2.41154C42.2535 3.97792 42.2118 5.57455 42.5107 7.10689C42.6432 7.79927 43.2788 8.62408 43.9069 8.9419C45.6927 9.84995 47.6412 10.444 49.4384 11.3331C50.407 11.8136 51.0124 11.719 51.7577 10.9888C52.836 9.93698 54.0203 8.98731 55.1743 8.01116C56.4153 6.95933 57.679 6.88366 58.8859 8.06035C60.5999 9.72889 62.3327 11.3823 63.9861 13.1152C65.0531 14.2389 65.0001 15.5177 64.0278 16.7057C62.7943 18.2116 60.7361 19.5548 60.4675 21.2006C60.2026 22.8237 61.7803 24.7155 62.4614 26.5241C63.5548 29.4374 63.5246 29.4487 66.5968 29.5622C66.7216 29.566 66.8503 29.566 66.9752 29.5736C71.557 29.7476 71.89 30.0768 71.9392 34.583C71.9543 36.157 71.9089 37.7347 71.9467 39.3087C71.9884 41.121 70.9971 41.9723 69.3323 42.1425C67.8302 42.2976 66.3168 42.4263 64.8072 42.4339C63.6381 42.4414 63.184 43.0052 62.8662 44.0419C62.3479 45.7142 61.6668 47.3336 60.8799 49.4486C59.0448 47.5341 57.4217 45.9677 55.9839 44.2462C55.6321 43.8262 55.7115 42.8387 55.9045 42.2031C59.6729 29.5925 51.7085 17.103 38.6704 15.2377C27.5355 13.6449 17.2329 21.4768 15.3146 32.9901C13.5628 43.4971 21.0996 54.2613 31.652 56.3649C35.3182 57.0951 38.9012 56.853 42.4918 55.8541C43.1539 55.6688 44.1868 55.9639 44.7468 56.4141C46.3018 57.6665 47.698 59.1193 49.4952 60.8106L49.4838 60.8182Z" fill="#8E90FF"/>
<path d="M72.9189 80.4165C69.8959 81.5251 67.6068 80.9084 65.4956 79.7733C62.0299 77.9118 59.9792 74.9909 59.9414 70.9576C59.9149 67.9951 58.8252 65.672 56.6837 63.6138C52.2721 59.38 47.887 55.1122 43.7251 50.6362C41.0842 47.7948 38.2011 46.2435 34.2322 46.0392C29.0525 45.7744 24.9965 40.9125 25.1138 35.7669C25.1289 35.0745 25.39 34.3896 25.6549 33.16C27.1418 34.6242 28.239 35.7026 29.34 36.7809C31.3604 38.7635 32.7717 38.7559 34.8262 36.7619C39.4497 32.2747 39.4497 32.0893 34.9926 27.5225C34.5273 27.0458 34.0959 26.5388 33.2446 25.5967C34.5916 25.3583 35.4618 25.0329 36.3131 25.0821C41.6593 25.3886 45.9536 29.6451 46.1692 34.9572C46.2941 38.0219 47.3081 40.4547 49.5858 42.6189C54.5195 47.3067 59.283 52.1724 64.0427 57.038C65.8702 58.9071 67.9209 59.8454 70.5693 59.8794C76.6457 59.9626 81.2352 64.8056 80.993 70.7231C80.9703 71.2376 80.6828 71.7408 80.5201 72.2478C80.0396 72.036 79.4758 71.9187 79.1012 71.5895C78.11 70.7155 77.2435 69.7015 76.2522 68.8275C74.8031 67.5487 73.2784 67.56 71.8482 68.8502C70.8645 69.7356 69.9337 70.6815 69.0219 71.6387C67.5576 73.1748 67.5084 74.7374 68.9386 76.3265C70.0964 77.6167 71.3525 78.8161 72.9189 80.4165Z" fill="#8E90FF"/>
</svg>
