<svg width="54" height="78" viewBox="0 0 54 78" fill="none" xmlns="http://www.w3.org/2000/svg">
<path d="M40.6592 24.6582C45.2194 24.1435 48.7743 27.4635 46.3572 32.394C50.2944 32.692 52.4466 35.5726 50.8121 39.7957C52.3984 40.5994 53.7289 41.6711 53.9576 43.6216C54.1443 45.2139 53.7198 46.5955 52.576 47.7393C45.6589 54.6564 38.7448 61.5796 31.8156 68.4877C30.6417 69.6586 29.9163 69.6435 28.7514 68.4817C22.5025 62.2448 16.2085 56.0501 10.074 49.7018C9.17095 48.7687 8.83684 47.1253 8.587 45.7497C7.49736 39.7386 6.48598 33.7124 5.54985 27.6773C5.22778 25.5883 4.35485 23.8906 2.86487 22.4458C2.21771 21.8197 1.60667 21.1515 1.01971 20.4652C0.0715413 19.3605 -0.340839 18.0963 0.330404 16.7207C1.02573 15.2969 2.27791 14.5926 3.83411 14.4933C6.01039 14.3548 7.84953 15.3421 9.15891 16.8652C11.6272 19.7428 13.8305 22.8461 16.1483 25.8531C17.0302 26.997 17.8399 28.21 18.8332 29.2515C19.6851 30.1425 20.567 30.0462 21.5303 29.074C28.3059 22.2261 35.1056 15.4053 41.9866 8.66274C43.007 7.6634 44.4007 6.79353 45.7673 6.44738C47.9556 5.89353 50.0476 7.13055 51.0319 9.04194C52.0523 11.0256 51.7784 13.3885 50.18 15.035C47.4559 17.8434 44.6596 20.5826 41.8993 23.3549C41.5532 23.701 41.2251 24.0622 40.6592 24.6582ZM30.3919 66.8592C31.1594 65.9712 31.7675 65.1766 32.4688 64.4752C38.4889 58.4371 44.5361 52.426 50.5533 46.3878C52.3382 44.5969 51.965 42.9744 49.6171 42.0353C47.9496 41.3671 47.5312 40.2624 48.4643 38.7122C49.0302 37.7731 49.268 36.879 48.6389 35.9127C47.9586 34.8683 46.9261 34.8111 45.8335 34.9767C45.4873 35.0308 45.102 35.2446 44.8101 35.1513C44.181 34.9466 43.3622 34.7359 43.0733 34.2543C42.7813 33.7727 42.9559 32.9448 43.0883 32.3007C43.1605 31.9545 43.5519 31.6595 43.8288 31.3736C44.6626 30.5127 45.1261 29.5374 44.5211 28.3876C43.9161 27.2378 42.8776 26.8585 41.6074 27.021C40.0572 27.2197 39.1662 26.2505 38.5311 25.0765C37.9411 23.9839 38.6786 23.1863 39.4221 22.4639C39.6388 22.2532 39.8495 22.0394 40.0602 21.8257C42.8264 19.0595 45.6138 16.3113 48.3499 13.515C49.5569 12.2779 49.5238 10.6042 48.3981 9.47845C47.3536 8.43697 45.701 8.44302 44.4458 9.50256C44.2562 9.66209 44.0997 9.86378 43.9221 10.0414C36.8635 17.097 29.7868 24.1374 22.7584 31.2261C21.5874 32.4091 20.1998 32.7041 18.9597 31.9576C17.5088 31.0847 16.1663 29.8747 15.0978 28.5532C13.7523 26.8857 12.8884 24.8327 11.5339 23.1711C9.9024 21.1694 8.03315 19.3484 6.14283 17.5815C5.62811 17.0999 4.67994 16.9554 3.91538 16.9163C3.46387 16.8952 2.76555 17.2835 2.58795 17.6748C2.42842 18.027 2.71738 18.7132 3.00635 19.1076C3.50602 19.7908 4.14716 20.3718 4.74917 20.9739C6.51006 22.7317 7.51542 24.8207 7.90071 27.301C8.83082 33.2368 9.92948 39.1456 10.8325 45.0845C11.1215 46.9748 11.886 48.4046 13.2827 49.6929C15.6035 51.833 17.7797 54.1266 20.0072 56.3691C23.3965 59.7825 26.7708 63.2051 30.3949 66.8683L30.3919 66.8592Z" fill="#8E90FF"/>
<path d="M28.9188 70.7764C28.5757 71.3483 28.377 71.8719 28.0188 72.2422C26.4897 73.8315 24.9275 75.3938 23.3442 76.9289C22.1853 78.0547 21.2703 78.0457 20.1084 76.8838C14.1425 70.9329 8.18556 64.9759 2.2437 59.0039C0.991512 57.7457 1.02764 56.9721 2.29487 55.6868C3.77281 54.1878 5.26279 52.6979 6.76782 51.226C7.94776 50.0701 8.78456 50.0641 9.98557 51.2621C15.9876 57.2431 21.9807 63.2331 27.9556 69.2442C28.35 69.6415 28.5697 70.2104 28.9158 70.7733L28.9188 70.7764ZM21.6315 74.9061C23.1155 73.4823 24.5392 72.1128 25.8185 70.8847C19.9338 64.982 14.0762 59.1093 8.33004 53.3451C6.95444 54.6424 5.51262 56.0059 4.10391 57.3363C9.99761 63.2421 15.8371 69.0968 21.6315 74.9032V74.9061Z" fill="#8E90FF"/>
<path d="M24.951 16.327C24.5898 16.02 24.0209 15.7521 23.8463 15.3217C23.6747 14.8973 23.6988 14.1237 23.9817 13.8287C26.1219 11.5832 28.3042 9.37673 30.5828 7.2727C30.9139 6.96568 32.0547 7.04397 32.3949 7.37808C32.747 7.72424 32.8885 8.88012 32.5965 9.19617C30.4564 11.5049 28.1868 13.6992 25.9383 15.9085C25.7426 16.1012 25.3995 16.1434 24.951 16.327Z" fill="#8E90FF"/>
<path d="M19.588 6.0654C19.588 4.61455 19.579 3.16364 19.5911 1.70978C19.6001 0.755588 19.9192 0.00301971 21.0299 9.65093e-06C22.1045 -0.00300041 22.5469 0.69842 22.556 1.65863C22.5831 4.56033 22.577 7.46509 22.559 10.3668C22.553 11.333 22.1436 12.0373 21.072 12.0583C19.871 12.0824 19.573 11.2999 19.585 10.2674C19.6001 8.86775 19.588 7.465 19.588 6.06231H19.582L19.588 6.0654Z" fill="#8E90FF"/>
<path d="M18.3973 14.3183C18.3251 15.6518 16.9375 16.4284 16.0886 15.6488C13.816 13.5538 11.6307 11.3534 9.52971 9.08982C9.24977 8.78882 9.47853 7.42228 9.76148 7.31392C10.3725 7.07913 11.414 7.07002 11.8535 7.45531C13.6535 9.02957 15.294 10.7874 16.9947 12.4791C17.3137 12.7951 17.6719 13.0811 17.9398 13.4363C18.1716 13.7403 18.298 14.1256 18.3943 14.3213L18.3973 14.3183Z" fill="#8E90FF"/>
</svg>
