<svg width="81" height="60" viewBox="0 0 81 60" fill="none" xmlns="http://www.w3.org/2000/svg">
<path d="M45.7693 59.9938C43.7035 59.0815 43.3603 57.3189 43.6324 55.3768C43.9509 53.11 43.2984 51.8266 40.9265 51.0411C37.8433 50.0175 37.9206 49.7794 35.4219 52.241C33.7025 53.9326 32.1377 54.0624 30.5698 52.6275C30.0008 52.108 29.4597 51.5606 28.804 50.9236C31.6522 47.6549 34.4416 44.4542 37.197 41.2906C38.7185 42.4441 40.1101 43.7738 41.7367 44.6799C48.1412 48.2393 54.4529 47.9177 60.4307 43.6718C65.9662 39.7382 68.6505 32.6379 66.9589 26.2365C65.1034 19.2073 60.6348 14.714 53.3984 13.2883C47.9433 12.2153 43.1283 13.7058 38.9257 17.2931C38.0041 18.0786 35.6569 18.2703 34.7756 17.5034C32.2491 15.3139 29.7813 13.0564 27.1094 10.6628C28.7236 9.09493 30.2266 7.56418 31.813 6.1231C33.1799 4.88302 34.6983 4.94487 36.0899 6.27772C37.2032 7.34153 38.2206 8.50737 39.17 9.50933C41.0409 8.83826 42.6954 8.30019 44.2911 7.62912C44.6746 7.46832 45.0457 6.89311 45.1168 6.45707C45.2498 5.65303 45.2158 4.80879 45.1415 3.99238C44.9745 2.15855 45.5838 0.785486 47.3125 0H55.0436C56.5651 0.903 57.2021 2.22658 56.9919 3.9831C56.9362 4.44078 57.0599 4.92629 56.9702 5.37161C56.5929 7.224 57.6258 7.81158 59.1071 8.71149C61.9429 10.434 63.8015 9.95155 65.7188 7.42501C66.8692 5.9097 68.6535 6.0365 70.0297 7.35699C71.3656 8.64036 72.6799 9.95155 73.9726 11.2844C75.4601 12.8183 75.457 14.3243 73.9324 15.8736C72.8871 16.9344 71.7615 17.9116 70.7193 18.8857C71.2141 20.0114 71.6409 20.8865 71.9903 21.7895C73.1407 24.7645 73.1314 24.7707 76.3847 24.7861C78.8432 24.7985 79.4524 25.2129 80.408 27.526V34.3295C79.6627 36.1014 78.3484 36.8838 76.4156 36.7199C75.4446 36.6364 74.4488 36.6241 73.484 36.7447C73.0417 36.7973 72.4573 37.1467 72.2655 37.5271C71.4862 39.0764 70.8337 40.6906 70.0049 42.5739C70.8894 43.3873 71.9532 44.281 72.9212 45.2706C74.3715 46.7488 74.3591 48.2672 72.9366 49.7485C71.8295 50.8989 70.6822 52.0122 69.5504 53.1409C67.3702 55.3118 66.0682 55.4201 64.0396 53.076C62.3233 51.0937 60.6812 49.9712 58.2319 51.7462C58.1917 51.7772 58.1423 51.7957 58.0928 51.8112C55.4766 52.7296 55.4054 52.7296 55.4982 55.5654C55.5601 57.424 55.2817 59.0197 53.5036 60H45.7724L45.7693 59.9938Z" fill="#8E90FF"/>
<path d="M0 46.6968C0.358726 44.5815 0.54118 42.4199 1.11019 40.3634C3.75116 30.783 10.2577 25.3247 19.7856 23.1971C20.7319 22.9868 21.6967 22.8663 22.8255 22.6714C22.6739 20.0552 22.5255 17.4637 22.3554 14.5537C28.0796 19.647 33.6306 24.5857 39.3176 29.645C34.4439 35.233 29.5887 40.7995 24.3995 46.7463C24.1862 43.8394 24.0037 41.3747 23.812 38.7708C15.6386 37.5771 8.34038 38.9811 2.47397 45.2124C1.63591 46.103 0.825686 47.0246 0.00309077 47.9307C0.00309077 47.5194 0.00309077 47.105 0.00309077 46.6937L0 46.6968Z" fill="#8E90FF"/>
<path d="M50.3349 24.4582C53.2882 24.4334 55.824 26.9136 55.9137 29.9132C56.0034 32.8542 53.35 35.5323 50.3411 35.5354C47.4187 35.5385 44.8581 32.9624 44.8457 30.0029C44.8334 27.0775 47.4032 24.4798 50.3318 24.4551L50.3349 24.4582Z" fill="#8E90FF"/>
</svg>
