<svg width="41" height="75" viewBox="0 0 41 75" fill="none" xmlns="http://www.w3.org/2000/svg">
<path d="M18.2694 43.9785C18.2694 40.7106 18.3017 37.4448 18.2586 34.1769C18.2306 32.0421 20.3288 31.092 21.9595 31.8396C22.6726 32.167 23.097 32.6172 23.2025 33.4336C23.6528 36.8847 24.1655 40.325 24.6071 43.7782C24.7126 44.5989 25.0616 44.8338 25.8673 45.0384C29.7147 46.0272 33.5406 47.1 37.3428 48.2503C38.4974 48.5993 39.3936 49.5902 39.4237 50.7901C39.5185 54.4415 39.5444 58.1037 39.3376 61.7465C39.2665 62.9959 38.562 64.2777 37.9136 65.4129C37.0649 66.8972 36.5565 68.39 36.675 70.1112C36.7353 71.0009 36.6599 71.9036 36.5866 72.7954C36.5155 73.6636 35.9598 74.1482 35.1304 74.2861C34.426 74.4046 33.7086 74.523 32.9977 74.5274C28.9413 74.5489 24.8828 74.5511 20.8264 74.5274C19.9691 74.523 19.1095 74.4175 18.2565 74.3098C17.4422 74.2064 16.9682 73.7519 16.9489 72.8794C16.9209 71.589 16.7916 70.2944 16.8455 69.0083C16.8885 67.9872 16.546 67.2397 15.8588 66.518C13.0045 63.5258 10.7275 60.1416 9.23032 56.2791C8.86196 55.3312 8.72624 54.2735 8.61853 53.2502C8.51082 52.2399 8.9869 51.4515 9.9089 50.9582C10.8805 50.439 11.8563 50.4088 12.7525 51.0529C13.2673 51.4213 13.6551 51.962 14.129 52.3929C14.9735 53.1597 15.7748 53.9956 16.7119 54.6289C17.6339 55.2515 18.0152 55.0016 18.0238 53.8879C18.0497 50.5877 18.0324 47.2852 18.0324 43.985C18.11 43.985 18.1897 43.985 18.2672 43.985L18.2694 43.9785Z" fill="#8E90FF"/>
<path d="M10.7832 64.0062C7.9116 64.0062 5.11759 64.0428 2.32574 63.9889C1.19693 63.9674 0.313702 63.0346 0.203838 61.9338C0.113361 61.0075 0.0142674 60.0747 0.0121132 59.1462C-0.000812047 41.4149 -0.00512139 23.6815 0.00780387 5.95021C0.00780387 4.84295 0.11767 3.72919 0.262002 2.63054C0.455881 1.14844 1.12799 0.515105 2.57132 0.422475C4.21498 0.314764 5.86295 0.235102 7.51092 0.198481C11.6362 0.110158 15.7615 -0.00620478 19.889 0.000257845C25.0548 0.00887468 30.2227 0.118733 35.3885 0.20921C36.3902 0.226444 37.392 0.319081 38.3894 0.4311C39.74 0.581894 40.4445 1.24538 40.55 2.68008C40.7525 5.43101 40.9636 8.18842 40.9723 10.9437C41.0175 23.0395 40.9938 35.1376 40.9938 47.2335C40.9938 47.4747 40.9938 47.716 40.9938 47.8927C39.9641 47.2076 38.915 46.6044 37.993 45.8462C37.6634 45.5769 37.5018 44.9349 37.4997 44.461C37.4674 36.9945 37.4954 29.528 37.4609 22.0616C37.4394 17.5765 37.3144 13.0914 37.2799 8.60847C37.2713 7.52706 36.7845 7.14364 35.772 7.13718C28.5597 7.10056 21.3474 7.0273 14.1351 7.00791C11.0137 6.99929 7.89221 7.11562 4.77292 7.11777C3.86169 7.11777 3.50193 7.39351 3.50409 8.34998C3.52778 22.2425 3.52132 36.1328 3.52778 50.0253C3.52778 50.454 3.63549 50.8805 3.63549 51.3092C3.63549 52.4122 4.1525 52.927 5.26192 52.996C5.54628 53.0132 5.99866 53.4074 6.04605 53.6853C6.68585 57.3905 8.57294 60.5163 10.5505 63.6076C10.6431 63.7519 10.7228 63.9049 10.781 64.004L10.7832 64.0062Z" fill="#8E90FF"/>
<path d="M25.8699 34.0879C25.1957 31.1431 23.7114 29.0664 20.4629 29.3422C17.1863 29.6201 15.8292 31.8174 15.6805 34.9711C13.7956 33.3361 13.7051 29.5964 15.394 27.3C17.322 24.6761 21.1716 24.1354 24.1056 25.9471C26.9751 27.7179 27.128 31.7721 25.8699 34.09V34.0879Z" fill="#8E90FF"/>
<path d="M32.2691 30.6956C31.7262 32.4556 31.2049 34.2242 30.6211 35.9691C30.4789 36.3957 30.2097 36.8675 29.8564 37.1152C29.3781 37.4513 28.6242 37.9187 28.2364 37.7507C27.4372 37.406 28.0533 36.6693 28.2773 36.1846C29.1239 34.3621 29.9792 32.5806 29.9878 30.4824C29.9964 28.4704 29.4859 26.6781 28.4044 25.0021C28.0878 24.5109 27.3984 23.8884 28.2278 23.3541C28.9602 22.8824 29.5785 23.3283 30.0309 23.9939C31.3902 25.9887 31.9287 28.2183 31.974 30.5944C32.0709 30.6267 32.17 30.6612 32.2669 30.6935L32.2691 30.6956Z" fill="#8E90FF"/>
<path d="M8.99238 30.1719C8.8739 28.1879 9.34567 26.2685 10.4766 24.5322C10.7265 24.1466 11.0152 23.7201 11.3943 23.5046C11.7498 23.3022 12.2495 23.356 12.6847 23.2979C12.7019 23.6878 12.8398 24.125 12.7127 24.4611C12.3314 25.4607 11.7778 26.3977 11.4094 27.3994C10.3861 30.1827 10.6403 32.8754 12.1461 35.4389C12.3271 35.747 12.5813 36.0421 12.6588 36.3739C12.7515 36.7767 12.689 37.214 12.6955 37.6362C12.2172 37.6039 11.6658 37.7095 11.2845 37.5005C10.8838 37.2808 10.58 36.7961 10.3495 36.3653C9.33274 34.4588 8.92991 32.4037 8.99238 30.1719Z" fill="#8E90FF"/>
</svg>
