<svg width="61" height="69" viewBox="0 0 61 69" fill="none" xmlns="http://www.w3.org/2000/svg">
<g clip-path="url(#clip0_215_1748)">
<path d="M42.7039 32.8691C42.6901 32.2182 42.2678 31.7921 41.6154 31.7194C41.185 31.6711 40.7522 31.6351 40.3268 31.5591C40.2064 31.537 40.0591 31.4136 40.0079 31.2991C39.7378 30.6932 39.4848 30.0782 39.2505 29.4576C39.2049 29.3366 39.2196 29.1428 39.2887 29.039C39.5303 28.6775 39.8134 28.3455 40.0713 27.9947C40.4919 27.4215 40.4569 26.8819 39.9591 26.3855C39.3717 25.8 38.7786 25.2203 38.1799 24.6471C37.6706 24.1597 37.1304 24.136 36.5748 24.5702C36.19 24.8711 35.8158 25.1851 35.4513 25.482C35.0136 25.2767 34.6028 25.0698 34.1814 24.8883C33.7787 24.715 33.2238 24.6765 32.9961 24.3781C32.7601 24.0698 32.8382 23.5187 32.7756 23.0746C32.6837 22.4336 32.2704 22.0018 31.7009 21.9945C30.806 21.9838 29.9103 21.9863 29.0163 22.0067C28.4143 22.0206 27.9945 22.3992 27.9009 22.9904C27.8326 23.4197 27.809 23.8564 27.7431 24.2865C27.726 24.3985 27.6471 24.553 27.556 24.5923C26.8043 24.9169 26.0428 25.2195 25.257 25.54C24.9169 25.2775 24.5484 24.9774 24.1644 24.6986C23.6323 24.3126 23.0873 24.3535 22.6252 24.8204C22.0224 25.428 21.4269 26.0445 20.8403 26.6684C20.4051 27.1321 20.3823 27.6816 20.7638 28.1861C21.0185 28.5222 21.3048 28.8345 21.5465 29.1788C21.6181 29.281 21.6368 29.474 21.5936 29.595C21.3724 30.2205 21.1324 30.8403 20.8737 31.4512C20.8249 31.5681 20.6735 31.6932 20.5515 31.7169C20.1269 31.7995 19.6941 31.8322 19.2653 31.8952C18.7284 31.9753 18.3176 32.4144 18.3111 32.9508C18.3005 33.8503 18.3021 34.7506 18.3233 35.6501C18.3379 36.2993 18.7764 36.7327 19.4183 36.7948C19.8218 36.8341 20.2285 36.866 20.6264 36.9437C20.7606 36.9698 20.9225 37.1007 20.9819 37.2266C21.2658 37.826 21.5286 38.4368 21.7751 39.0533C21.8222 39.1719 21.81 39.3665 21.7417 39.4695C21.5009 39.831 21.2178 40.1638 20.9607 40.5146C20.5271 41.1041 20.5678 41.6381 21.0876 42.154C21.6571 42.7199 22.2306 43.28 22.8082 43.8361C23.3663 44.3741 23.8976 44.3945 24.5085 43.9056C24.8998 43.5924 25.2854 43.271 25.6328 42.9873C26.3536 43.2579 27.0296 43.5294 27.7195 43.7625C27.9701 43.8475 28.0946 43.9448 28.1059 44.2294C28.1214 44.6219 28.1971 45.0119 28.2451 45.4036C28.328 46.0684 28.7413 46.5165 29.3254 46.5238C30.2203 46.5345 31.1152 46.5328 32.0101 46.5116C32.6113 46.4968 33.0351 46.1183 33.1246 45.5271C33.1978 45.0438 33.2149 44.5515 33.2922 44.0683C33.315 43.9252 33.428 43.7347 33.5501 43.6782C34.1993 43.3781 34.8639 43.1132 35.5652 42.8188C35.9467 43.114 36.3714 43.4509 36.8066 43.7747C37.3932 44.213 37.9285 44.1754 38.4394 43.657C39.0211 43.0658 39.5962 42.468 40.1665 41.8662C40.6213 41.3862 40.6562 40.8416 40.2601 40.3175C39.9647 39.9274 39.6377 39.5611 39.3481 39.1678C39.2798 39.0738 39.2562 38.8922 39.296 38.7827C39.5051 38.2103 39.728 37.6412 39.9786 37.0859C40.0347 36.9592 40.2064 36.83 40.343 36.8046C40.8084 36.718 41.2827 36.6877 41.7504 36.6174C42.3077 36.534 42.7112 36.0834 42.7161 35.5266C42.7234 34.641 42.7226 33.7546 42.7039 32.8691ZM34.7313 36.8692C34.9436 37.6199 35.1592 38.3689 35.3732 39.1187C35.3789 39.1384 35.3813 39.158 35.3878 39.1923C34.798 39.0321 34.2237 38.8759 33.6493 38.7189C33.4427 38.6625 33.2377 38.6036 33.0302 38.5513C32.9944 38.5414 32.9448 38.5464 32.9123 38.5643C32.4298 38.835 31.9173 39.0206 31.3739 39.1187C30.7711 39.2267 30.1674 39.2267 29.5687 39.1024C28.2133 38.8211 27.15 38.0974 26.3983 36.9306C25.7825 35.9755 25.5319 34.919 25.6564 33.7882C25.8395 32.1258 26.6676 30.8706 28.0946 30.0202C28.7771 29.6138 29.5247 29.4004 30.3196 29.3832C32.0784 29.344 33.485 30.0423 34.5109 31.4732C35.2162 32.4569 35.483 33.5731 35.3691 34.78C35.3032 35.4808 35.0901 36.1333 34.7435 36.7433C34.724 36.7777 34.7207 36.8308 34.7313 36.8692ZM38.6574 35.5838C38.6542 36.0017 38.3328 36.3026 37.9171 36.3026C37.3452 36.3034 36.7725 36.3034 36.2006 36.3034H36.1054C36.1314 36.2184 36.1542 36.1456 36.1778 36.072C36.2974 35.6893 36.3755 35.3009 36.4161 34.9059C36.4047 34.888 36.4015 34.8675 36.4064 34.843C36.456 34.5928 36.4495 34.2044 36.4397 33.9803V33.9754C36.3746 32.7677 35.9801 31.6777 35.2601 30.7046C35.2137 30.6416 35.1641 30.5811 35.1169 30.5182C35.1023 30.4994 35.0795 30.4814 35.0722 30.4601C34.8932 30.2393 34.7915 30.1273 34.7826 30.1101C32.9204 28.3848 30.8044 27.8721 28.3956 28.7078C26.234 29.6187 25.0121 31.2132 24.6362 33.43C24.598 33.7415 24.5541 34.2624 24.5972 34.8135V34.8185C24.6118 35.0049 24.6371 35.1954 24.6753 35.381C24.7005 35.5209 24.7314 35.659 24.7664 35.7948C24.9454 36.4915 25.2488 37.1432 25.6767 37.7475C25.8207 37.9372 26.0404 38.2135 26.2885 38.4793C26.5301 38.7377 26.7994 38.9863 27.0524 39.1359C27.1012 39.1711 27.15 39.2054 27.1997 39.2389C27.7399 39.6061 28.3362 39.8776 28.9886 40.0534C29.1855 40.1057 29.3897 40.1335 29.5882 40.1817C29.6655 40.1997 29.6988 40.1719 29.7403 40.1131C29.9315 39.8432 30.1959 39.7018 30.5262 39.7091C31.0802 39.7214 31.4536 40.1597 31.4528 40.6601C31.4512 41.1769 31.0322 41.5947 30.5181 41.5931C30.1178 41.5915 29.8306 41.4001 29.6573 41.0412C29.6264 40.9774 29.5874 40.952 29.5231 40.943C28.9333 40.8588 28.3663 40.692 27.8196 40.4516C26.9955 40.0885 26.2739 39.5791 25.6556 38.9233C24.96 38.1866 24.4516 37.3345 24.14 36.3672C24.1221 36.3124 24.092 36.3018 24.0407 36.3018C23.7365 36.3042 23.4322 36.3034 23.128 36.3026C22.6708 36.3026 22.3632 35.9951 22.3624 35.5339C22.3624 34.8283 22.3624 34.1234 22.3624 33.4177C22.3624 33.2844 22.3608 33.1512 22.3624 33.0187C22.3665 32.578 22.6732 32.2713 23.1101 32.2705C23.1914 32.2705 23.2728 32.2648 23.3541 32.2721C23.4306 32.2787 23.4656 32.2509 23.4867 32.1765C23.6039 31.7627 23.7601 31.3629 23.9569 30.9802C24.8494 29.2466 26.2031 28.0332 28.0278 27.3594C29.0797 26.971 30.1691 26.8483 31.2811 26.971C32.6763 27.1247 33.9097 27.6284 34.9819 28.4698C35.0234 28.496 35.0673 28.5271 35.1129 28.5655C36.0159 29.3088 36.3332 29.8158 36.3332 29.8158C36.3332 29.8158 36.3315 29.8182 36.3291 29.8239C36.3429 29.8419 36.3551 29.8607 36.3665 29.8804C36.491 30.0905 36.6439 30.2835 36.7708 30.492C37.0897 31.0153 37.3338 31.5738 37.5071 32.1626C37.5315 32.246 37.5665 32.277 37.6551 32.273C37.7991 32.268 37.9472 32.2591 38.0871 32.2869C38.4247 32.3531 38.6558 32.636 38.6582 32.9868C38.6639 33.8519 38.6655 34.7179 38.6574 35.5838ZM32.8268 33.4251C32.3583 33.4267 31.971 33.8209 31.9751 34.291C31.9792 34.7604 32.3648 35.1447 32.8309 35.1423C33.3028 35.1398 33.6843 34.753 33.6827 34.2788C33.6802 33.8127 33.2906 33.4243 32.8268 33.4251ZM30.5002 33.4251C30.0348 33.4226 29.6427 33.8176 29.6435 34.2878C29.6451 34.7555 30.0299 35.1406 30.4969 35.1423C30.9639 35.1431 31.3503 34.7588 31.3511 34.291C31.3527 33.8168 30.9704 33.4275 30.5002 33.4251ZM28.1686 33.4251C27.7016 33.4235 27.3144 33.816 27.3152 34.2894C27.3168 34.7579 27.7008 35.1423 28.1678 35.1423C28.6347 35.1423 29.0236 34.7539 29.022 34.2804C29.0195 33.8135 28.6347 33.4275 28.1686 33.4251Z" fill="#8E90FF"/>
<path d="M52.0062 23.4479C48.3584 25.5641 44.7227 27.6738 41.0862 29.7834C41.0578 29.7556 41.0285 29.727 41 29.6992C41.1155 29.5349 41.2262 29.3672 41.3466 29.207C41.8762 28.5046 42.0828 27.7188 41.8656 26.8643C41.7891 26.5625 41.8811 26.4587 42.1072 26.3278C44.874 24.7284 47.636 23.1192 50.4044 21.5239C50.6696 21.3709 50.7786 21.2532 50.7086 20.9016C50.1302 17.9799 51.9558 15.2963 54.8731 14.7353C57.7099 14.1899 60.5263 16.3396 60.8639 19.2359C61.1739 21.8959 59.3687 24.5894 56.4172 24.9827C55.0147 25.17 53.595 24.9157 52.0054 23.4495L52.0062 23.4479Z" fill="#8E90FF"/>
<path d="M8.98974 45.5569C12.6392 43.4399 16.2733 41.3318 19.9073 39.2246C19.9398 39.259 19.9716 39.2933 20.0041 39.3268C19.8821 39.4904 19.7609 39.6539 19.6388 39.8174C19.1247 40.5109 18.9262 41.2868 19.1344 42.1266C19.206 42.4169 19.1418 42.5338 18.9067 42.6696C16.1846 44.2396 13.4707 45.8251 10.7445 47.3869C10.3744 47.5987 10.2247 47.7745 10.3085 48.2537C10.8112 51.1311 9.0052 53.7036 6.13751 54.2654C3.33409 54.8141 0.456637 52.6439 0.141801 49.8138C-0.132358 47.3501 1.27342 45.3623 2.92488 44.5331C4.8863 43.5494 7.08364 43.8618 8.80588 45.3909C8.85632 45.4359 8.90594 45.4817 8.98974 45.5577V45.5569Z" fill="#8E90FF"/>
<path d="M19.4549 29.5167C15.9706 27.4954 12.4871 25.474 8.98727 23.4429C8.15584 24.2614 7.17879 24.7643 6.0366 24.9752C3.30721 25.4781 0.465556 23.2981 0.140144 20.5286C-0.187708 17.7378 1.72408 15.2552 4.32087 14.745C7.02422 14.2143 9.90818 16.1522 10.3076 18.8924C10.4036 19.5539 10.3613 20.2489 10.2857 20.9178C10.2491 21.2441 10.3206 21.3643 10.5761 21.5114C13.3453 23.1076 16.1081 24.716 18.8725 26.322C18.953 26.3686 19.0319 26.4201 19.1491 26.4929C18.7032 27.5453 18.8212 28.5453 19.4549 29.5159V29.5167Z" fill="#8E90FF"/>
<path d="M52.017 45.5591C52.8549 44.7381 53.8181 44.2409 54.9473 44.0308C57.7019 43.5197 60.5354 45.6915 60.8641 48.4922C61.1822 51.2037 59.342 53.7361 56.6639 54.2602C53.9516 54.7909 51.057 52.8063 50.6885 50.0499C50.6014 49.3998 50.6438 48.7203 50.7178 48.0645C50.7528 47.7554 50.6861 47.6368 50.4469 47.4987C48.1942 46.2001 45.9473 44.891 43.6978 43.586C43.091 43.2335 42.4832 42.8819 41.8471 42.5131C42.3043 41.4493 42.1879 40.4591 41.5469 39.4844C45.0263 41.5025 48.505 43.5214 52.017 45.5583V45.5591Z" fill="#8E90FF"/>
<path d="M31.7242 20.6111H29.2966V10.268C26.3313 9.39222 25.0028 6.79766 25.421 4.37563C25.8749 1.75082 28.0731 -0.0644792 30.5698 0.00175456C33.1121 0.0696237 35.2329 1.89391 35.5966 4.42797C35.9838 7.12719 34.3844 9.50098 31.725 10.2467V20.6111H31.7242Z" fill="#8E90FF"/>
<path d="M29.2774 58.7411V48.4111H31.7091V58.7501C33.2174 59.186 34.3636 60.0478 35.0844 61.4412C35.6653 62.5639 35.7775 63.752 35.5245 64.972C35.0462 67.2796 32.8049 69.045 30.4481 68.9992C27.9188 68.9501 25.7931 67.1357 25.4075 64.5902C25.0243 62.0618 26.4366 59.5703 29.2766 58.7411H29.2774Z" fill="#8E90FF"/>
<path d="M3.60586 42.4806C2.83789 42.8322 2.10734 43.1658 1.34019 43.5175C-0.447136 37.5172 -0.446322 31.5014 1.34019 25.4814C2.09189 25.8265 2.81837 26.1601 3.60261 26.5199C2.08945 31.8137 2.08375 37.1746 3.60668 42.4806H3.60586Z" fill="#8E90FF"/>
<path d="M57.3953 26.5204C58.1658 26.168 58.8955 25.8344 59.661 25.4844C61.45 31.483 61.4451 37.5005 59.6504 43.5588C59.2681 43.3544 58.9248 43.15 58.5636 42.9848C58.1975 42.8172 57.8135 42.6888 57.3848 42.5228C58.915 37.1889 58.9175 31.8265 57.3962 26.5204H57.3953Z" fill="#8E90FF"/>
<path d="M37.3175 64.3935C37.2337 63.5391 37.1564 62.7459 37.0742 61.9061C42.3914 60.5839 46.996 57.9043 50.8058 53.9131C51.4859 54.4021 52.1497 54.8788 52.8396 55.3743C48.5734 59.9256 43.401 62.9503 37.3175 64.3935Z" fill="#8E90FF"/>
<path d="M8.16211 55.3776C8.85035 54.8821 9.50769 54.4094 10.1967 53.9131C12.041 55.8527 14.1481 57.5412 16.5065 58.9117C18.847 60.2715 21.3348 61.2626 23.9299 61.9037C23.8478 62.7393 23.7688 63.5431 23.685 64.3927C17.6153 62.9585 12.4462 59.9338 8.16292 55.3768L8.16211 55.3776Z" fill="#8E90FF"/>
<path d="M23.6826 4.60726C23.7656 5.44377 23.8445 6.23776 23.9291 7.09062C18.6208 8.41284 14.0146 11.0875 10.1674 15.1163C9.84366 14.8522 9.53371 14.5742 9.19853 14.333C8.86987 14.0967 8.51436 13.8972 8.13281 13.6576C12.4258 9.07272 17.6039 6.04642 23.6826 4.60645V4.60726Z" fill="#8E90FF"/>
<path d="M37.077 7.09584C37.1592 6.23644 37.2356 5.44245 37.3153 4.6084C43.3892 6.04428 48.5608 9.06813 52.8399 13.6268C52.1566 14.1174 51.4943 14.5925 50.8053 15.0864C47.0085 11.1067 42.4072 8.42215 37.0762 7.09584H37.077Z" fill="#8E90FF"/>
<path d="M24.5957 34.8184C24.6103 35.0048 24.6356 35.1953 24.6738 35.3809C24.6396 35.197 24.6136 35.0089 24.5957 34.8184Z" fill="#8E90FF"/>
<path d="M26.2871 38.4795C26.5287 38.7379 26.798 38.9865 27.051 39.1361C26.7825 38.9415 26.5279 38.7223 26.2871 38.4795Z" fill="#8E90FF"/>
<path d="M24.7649 35.7946C24.73 35.6589 24.699 35.5207 24.6738 35.3809C24.6909 35.4667 24.7113 35.5518 24.7357 35.6352C24.7527 35.6957 24.7625 35.7488 24.7649 35.7946Z" fill="#8E90FF"/>
<path d="M27.198 39.2388C27.1484 39.2052 27.0996 39.1709 27.0508 39.1357C27.054 39.1382 27.0573 39.1398 27.0605 39.1415C27.1329 39.184 27.1769 39.2159 27.198 39.2388Z" fill="#8E90FF"/>
</g>
<defs>
<clipPath id="clip0_215_1748">
<rect width="61" height="69" fill="white"/>
</clipPath>
</defs>
</svg>
