<svg width="82" height="81" viewBox="0 0 82 81" fill="none" xmlns="http://www.w3.org/2000/svg">
<path d="M39.5047 22.7674C40.1637 24.2326 41.028 24.6977 42.5164 24.4264C43.0784 24.3217 43.5823 24.093 43.6288 23.4186C43.6753 22.779 43.1908 22.5737 42.7024 22.4341C41.7528 22.1628 40.7761 21.9729 39.842 21.6551C38.0861 21.0543 37.3032 19.9884 37.2916 18.3294C37.2799 16.6434 38.1908 15.155 39.7877 14.6627C40.652 14.3953 40.9544 14.0077 40.8226 13.1743C40.8071 13.0852 40.8536 12.9883 40.8807 12.8604H42.6637V14.2829C44.5629 14.5891 45.9583 15.4573 46.5784 17.3953C45.6831 17.6938 44.8071 17.9883 43.9428 18.279C43.1831 17.0193 42.559 16.6395 41.3924 16.8876C41.0319 16.9651 40.5745 17.31 40.4583 17.6395C40.2722 18.1666 40.7063 18.4961 41.2102 18.6318C41.9738 18.8333 42.7528 18.9922 43.5125 19.2054C45.842 19.8527 46.9467 21.1434 46.8691 23.1047C46.7955 25.0311 45.3575 26.5349 43.1715 26.9691C43.0513 26.9923 42.9273 27.0117 42.7102 27.0466V28.7016C42.5939 28.7869 42.5746 28.814 42.5552 28.8179C40.9195 29.066 40.8807 29.0311 40.8071 27.4303C40.8032 27.3101 40.7761 27.1938 40.7528 27.0388C38.6482 26.721 37.1481 25.7054 36.6094 23.4496C37.5706 23.2248 38.5164 23 39.5009 22.7674H39.5047Z" fill="#8E90FF"/>
<path d="M14.7678 53.0509C16.0585 52.0742 17.2368 51.202 18.3919 50.295C22.3454 47.202 26.8144 45.6826 31.8494 45.7213C38.3068 45.7717 44.7642 45.8027 51.2177 45.6981C53.865 45.6554 55.8844 46.4307 57.1829 48.9578C57.6829 48.7408 58.1519 48.578 58.5821 48.3415C63.2605 45.7523 67.9388 43.1516 72.6094 40.5469C75.9931 38.6593 78.9234 39.1477 80.5281 41.8841C82.1056 44.5663 81.187 47.3144 78.0087 49.3493C70.5667 54.1129 63.1054 58.8416 55.6868 63.6401C51.5317 66.3261 47.0433 67.5626 42.1014 67.1595C40.3649 67.02 38.6246 66.9037 36.8843 66.8611C36.1944 66.8456 35.4075 66.892 34.8261 67.2099C32.2331 68.6168 29.6943 70.1324 27.1865 71.582C27.2137 71.8494 27.1865 71.9929 27.2447 72.0859C28.4436 74.0523 28.0134 75.5626 25.954 76.6169C23.4268 77.9038 20.8609 79.1247 18.3764 80.489C16.8454 81.3301 15.888 81.1945 14.888 79.6169C10.1941 72.2099 5.41503 64.8495 0.608792 57.5122C-0.360208 56.0316 -0.220667 55.1129 1.37624 54.2796C4.23286 52.7873 7.05846 51.2369 9.8453 49.6206C11.2368 48.8144 12.2174 48.8997 13.0236 50.3764C13.512 51.2718 14.136 52.0897 14.7678 53.047V53.0509ZM25.4423 69.3843C27.733 68.0587 29.8803 66.8921 31.9501 65.6052C33.9501 64.361 36.0044 63.9386 38.3843 64.1867C43.6169 64.7332 48.8107 64.8029 53.5278 61.7486C61.2643 56.7408 69.059 51.8183 76.8342 46.8647C78.1714 46.012 78.9854 44.95 78.1521 43.3299C77.466 41.9927 76.0396 41.7989 74.2838 42.7679C68.9853 45.702 63.6868 48.6399 58.4038 51.6051C57.9232 51.8764 57.3573 52.2563 57.1558 52.7292C56.0511 55.3067 53.9154 56.0005 51.3844 56.1827C46.8805 56.5044 42.3843 56.8959 37.8843 57.2602C36.7913 57.3493 35.4734 57.6323 35.2874 56.0819C35.1091 54.578 36.423 54.6245 37.4385 54.5392C42.2603 54.1323 47.082 53.7486 51.8999 53.3416C53.4736 53.2098 54.7216 52.6206 54.6247 50.7718C54.5317 48.9617 53.3224 48.4539 51.6906 48.4578C44.7836 48.4811 37.8765 48.4346 30.9734 48.4811C25.0237 48.5199 20.5702 51.6904 16.3531 55.5082C19.3841 60.1401 22.3454 64.6634 25.4384 69.3882L25.4423 69.3843ZM25.109 73.927C20.3183 66.6091 15.6167 59.4269 10.8918 52.2175C8.24451 53.6826 5.83364 55.016 3.2406 56.454C7.9073 63.6749 12.5042 70.7913 17.1554 77.989C19.8415 76.6169 22.4035 75.3069 25.1051 73.927H25.109Z" fill="#8E90FF"/>
<path d="M62.6407 20.9459C62.6368 32.3336 53.1561 41.7949 41.7646 41.7872C30.3381 41.7794 20.8652 32.353 20.8535 20.9808C20.838 9.37997 30.1676 0.0077532 41.7297 1.20479e-06C53.3112 -0.0038748 62.6446 9.34505 62.6407 20.9459ZM59.9081 20.9731C59.9701 11.066 51.7956 2.78298 41.908 2.72484C31.8652 2.6667 23.6132 10.8334 23.5861 20.8451C23.559 30.7251 31.7606 38.9576 41.687 39.0197C51.5553 39.0817 59.8461 30.8685 59.9081 20.9692V20.9731Z" fill="#8E90FF"/>
</svg>
