<svg width="70" height="66" viewBox="0 0 70 66" fill="none" xmlns="http://www.w3.org/2000/svg">
<path d="M42.7164 0.0429958C50.0526 0.0429958 57.3908 0.113518 64.727 0.00678156C67.5117 -0.0332446 69.3148 1.92423 69.2995 4.6098C69.2176 18.68 69.2633 32.7501 69.2595 46.8203C69.2595 49.4811 67.6489 51.1012 64.9977 51.1031C54.5794 51.1069 44.1612 51.105 33.7448 51.0879C33.255 51.0879 32.6127 51.0745 32.3134 50.7848C31.8846 50.3731 31.5186 49.7155 31.471 49.1342C31.4119 48.4042 31.9436 47.8324 32.708 47.6513C33.1025 47.5579 33.5237 47.5408 33.9335 47.5408C44.1288 47.535 54.324 47.5255 64.5212 47.5579C65.4608 47.5617 65.7677 47.3464 65.7658 46.3533C65.7334 32.4738 65.7353 18.5942 65.7639 4.71463C65.7639 3.77496 65.4627 3.54624 64.5631 3.54624C49.984 3.57102 35.405 3.5653 20.8278 3.5653C19.9879 3.5653 19.5686 3.99034 19.5698 4.84042C19.5698 14.3057 19.5717 23.7709 19.5698 33.2362C19.5698 34.5532 19.0342 35.2546 18.0088 35.3328C16.9605 35.4128 16.16 34.7267 16.0933 33.6726C16.0685 33.2933 16.0856 32.9102 16.0856 32.529C16.0856 23.3173 16.1657 14.1055 16.0418 4.8976C15.9961 1.63451 17.9478 -0.0484927 20.8964 0.00106353C28.1678 0.12686 35.4431 0.0429958 42.7164 0.0429958Z" fill="#8E90FF"/>
<path d="M61.3001 22.7664C61.2944 23.7251 60.4462 24.4475 59.5466 24.417C58.6012 24.3846 57.8445 23.6241 57.8369 22.6006C57.8159 19.8693 57.8292 17.1379 57.8273 14.4066V13.2726C57.4385 13.6061 57.1793 13.8101 56.941 14.0369C42.4325 27.8554 27.9258 41.6778 13.4192 55.5002C12.8455 56.0472 12.2737 56.5981 11.6981 57.1451C10.7012 58.0905 9.71773 58.1801 8.93436 57.4005C8.19102 56.6591 8.29394 55.5364 9.22789 54.6463C15.1994 48.9454 21.1767 43.2503 27.1539 37.5551C35.224 29.8663 43.294 22.1793 51.3641 14.4924C52.6468 13.2687 53.9257 12.0432 55.3495 10.6823C54.9169 10.6518 54.6576 10.6156 54.4003 10.6156C51.3831 10.6099 48.3659 10.6156 45.3487 10.6022C44.1346 10.5965 43.376 9.92751 43.3531 8.90589C43.3321 8.01769 43.9764 7.14854 44.876 7.1352C48.0095 7.08183 51.143 7.11424 54.5052 7.11424L55.8394 7.14283C57.1507 7.14283 58.605 7.04371 60.0364 7.18476C60.7778 7.25719 61.3058 7.91476 61.3077 8.75912C61.3172 13.4288 61.3287 18.0967 61.3001 22.7664Z" fill="#8E90FF"/>
<path d="M3.55974 42.6746V62.4208H24.402C24.402 62.0206 24.402 61.6222 24.402 61.2239C24.3982 57.5071 24.3962 53.7923 24.3924 50.0756C24.3924 49.1512 24.6345 48.3774 25.6294 48.061C26.4281 47.8056 27.1028 48.0381 27.5469 48.7014C27.7756 49.0445 27.8938 49.5248 27.8957 49.946C27.9186 54.2974 27.9166 58.6489 27.9033 63.0022C27.8976 64.8281 26.7464 65.9889 24.9337 65.9927C17.628 66.0022 10.3223 66.0022 3.01653 65.9927C1.17342 65.9908 0.0279065 64.8948 0.0221884 63.0403C-0.00449571 56.0529 -0.0064023 49.0635 0.0126578 42.0761C0.0183758 40.2539 1.20201 39.1332 3.02606 39.1294C7.53759 39.1218 12.0472 39.1256 16.5587 39.1294C17.8319 39.1294 18.621 39.7889 18.6401 40.841C18.6611 41.9503 17.8929 42.6612 16.5568 42.6689C12.619 42.6879 8.67929 42.6765 4.73956 42.6765C4.36789 42.6765 3.99622 42.6765 3.56165 42.6765L3.55974 42.6746Z" fill="#8E90FF"/>
</svg>
