<svg width="65" height="79" viewBox="0 0 65 79" fill="none" xmlns="http://www.w3.org/2000/svg">
<path d="M0.0354351 12.0505C11.6805 10.5637 22.2341 7.23244 31.4278 0.25949C31.8936 -0.0933914 33.1075 -0.0840823 33.578 0.273505C42.7765 7.23704 53.33 10.5684 64.961 12.0505C64.961 12.8362 64.961 13.6643 64.961 14.4924C64.961 21.2348 64.8387 27.9772 64.9892 34.7149C65.248 46.3223 60.8346 56.0759 53.3535 64.6062C47.9474 70.7746 41.205 75.1645 33.785 78.5333C33.1593 78.8156 32.2135 78.9521 31.6254 78.6886C16.6303 71.918 5.54509 61.5199 1.13171 45.1603C0.388311 42.3984 0.13424 39.4483 0.0777792 36.5735C-0.0633736 29.21 0.0307254 21.8369 0.0307254 14.4687C0.0307254 13.6971 0.0307254 12.9303 0.0307254 12.0505H0.0354351ZM3.13138 14.7936C3.13138 22.27 3.03728 29.5485 3.17843 36.8179C3.23019 39.5327 3.54073 42.3184 4.2559 44.925C8.26935 59.6049 18.3382 68.9302 31.6207 75.282C32.2324 75.5737 33.3522 75.3715 33.9732 74.9857C38.3443 72.2614 43.007 69.8477 46.8934 66.5353C55.819 58.9366 61.4369 49.3429 61.8274 37.3167C62.0532 30.4284 61.8744 23.5262 61.8603 16.6285C61.8603 16.0216 61.7427 15.4194 61.6768 14.7936C60.6182 14.5913 59.7007 14.4123 58.7785 14.2429C50.7939 12.7373 43.0964 10.3001 36.3352 5.74088C33.4745 3.81179 31.5878 3.76942 28.6753 5.72204C21.0907 10.8082 12.4239 13.288 3.12667 14.7936H3.13138Z" fill="#8E90FF"/>
<path d="M14.2402 40.0218C16.5504 37.2128 19.5946 36.9542 22.7235 39.8995C24.6573 41.7204 26.5723 43.5647 28.6755 45.5691C32.7359 41.2969 36.7164 37.1142 40.697 32.9267C41.2898 32.3009 41.8685 31.661 42.4614 31.0352C46.0513 27.2476 47.9569 27.3558 51.4246 31.6751C49.726 33.4583 48.0087 35.2649 46.296 37.0717C41.6003 42.0167 36.9235 46.976 32.2043 51.8975C29.7717 54.4336 27.5886 54.57 25.1372 52.0152C21.4484 48.1711 17.9667 44.1341 14.2449 40.0172L14.2402 40.0218Z" fill="#8E90FF"/>
</svg>
