<svg width="80" height="75" viewBox="0 0 80 75" fill="none" xmlns="http://www.w3.org/2000/svg">
<path d="M66.2001 47.6367C67.9052 48.1838 68.7622 49.3505 69.5177 50.6967C72.0595 55.2331 74.639 59.7493 77.2473 64.2481C77.6989 65.0268 77.7511 65.4321 76.8478 65.904C74.9285 66.9027 73.0612 68.0115 71.1997 69.1174C70.557 69.4996 70.1923 69.5632 69.758 68.7845C67.031 63.9093 64.2373 59.0719 61.49 54.2083C61.2121 53.7133 61.0615 53.14 60.9023 52.5871C60.6649 51.7707 61.3916 50.4998 59.5735 50.4911C58.8469 50.4911 58.7919 49.035 59.5909 48.5544C60.3233 48.1144 60.3667 47.7467 59.9354 47.0808C59.3361 46.1516 59.0322 44.8633 58.2071 44.2959C57.2807 43.659 56.1893 44.7388 55.1703 45.0312C42.5742 48.6441 29.4889 41.1114 26.3942 28.4083C23.2937 15.6877 31.6052 2.81958 44.4878 0.396483C54.8721 -1.55762 65.2216 3.85018 69.6857 13.5599C73.9905 22.9252 71.3011 34.2735 63.117 40.8248C62.0603 41.6702 62.0053 42.2434 62.7348 43.219C63.1922 43.8327 63.5165 44.5449 63.8899 45.2194C64.0897 45.5813 64.2663 45.891 64.7613 45.561C65.3519 45.1644 65.9946 44.9039 66.5562 45.6015C67.1236 46.3079 67.0425 47.0027 66.203 47.6396L66.2001 47.6367ZM48.7116 3.49989C37.8467 3.52594 29.185 12.2688 29.2458 23.1423C29.3066 33.8914 38.0552 42.5155 48.8911 42.5068C59.4027 42.4981 68.2469 33.6453 68.27 23.1104C68.2932 12.2774 59.5127 3.47093 48.7116 3.49699V3.49989Z" fill="#8E90FF"/>
<path d="M36.8763 47.4374C34.184 48.9747 34.6675 50.8333 36.1815 52.8366C36.6997 53.5227 36.5029 54.2232 35.7299 54.6662C34.0972 55.5984 32.4557 56.5074 30.8171 57.428C30.021 57.8767 29.2828 57.6712 29.0281 56.8751C28.174 54.2088 26.5355 53.7687 23.9358 54.3883C21.5996 54.9441 21.533 54.6662 20.8498 57.0516C20.291 58.9971 20.0334 59.1418 18.0995 58.5918C16.7099 58.1952 15.3377 57.732 13.9337 57.4135C12.7815 57.1501 12.2777 56.5219 12.7583 55.4652C13.7715 53.2476 13.3054 51.8436 11.1111 50.5148C8.77771 49.0992 8.8993 48.801 6.44147 50.2137C5.23716 50.9056 4.5221 50.7059 3.90547 49.4842C3.19041 48.0657 2.3885 46.6905 1.57501 45.3241C1.02497 44.3977 1.0684 43.5466 2.1019 43.1905C4.58579 42.3336 5.08662 40.8601 4.49026 38.327C3.90258 35.8373 4.20076 35.7678 1.57212 35.0122C-0.0606446 34.5432 -0.245926 34.1958 0.225955 32.5167C0.654411 30.9911 1.09155 29.4655 1.51132 27.9369C1.78345 26.9497 2.4493 26.4836 3.35253 26.9439C5.72641 28.1482 7.11889 27.3927 8.47374 25.1896C9.83727 22.9749 10.0775 23.1226 8.73139 20.7371C7.90053 19.2636 7.98449 18.9422 9.45803 18.1171C10.8013 17.3644 12.1648 16.6408 13.4907 15.8591C14.5416 15.2396 15.4419 15.3669 15.8154 16.5307C16.5941 18.9625 18.1227 19.4604 20.3924 18.6961C21.5503 18.3053 21.8138 18.6643 21.8775 20.0423C21.9991 22.7839 21.2435 23.9361 18.3311 24.6164C13.3778 25.7715 9.87491 30.7479 9.63173 35.7157C9.37118 41.0685 12.2748 45.9234 17.0313 48.0859C21.8804 50.289 27.3605 49.3887 31.1877 45.5992C32.0909 44.7046 32.6497 44.6178 33.6195 45.3907C34.5488 46.1348 35.6431 46.6703 36.8763 47.4287V47.4374Z" fill="#8E90FF"/>
<path d="M79.9988 70.1277C80.0133 72.0934 78.8582 73.7754 77.1675 74.3949C75.4334 75.0289 73.5343 74.5107 72.3387 73.1356C71.7394 72.4466 71.6468 72.0066 72.5935 71.5115C74.4202 70.5591 76.189 69.4966 77.981 68.4776C79.2953 67.7307 79.5269 67.8233 79.8801 69.2765C79.9583 69.6008 79.9756 69.9395 79.9988 70.1277Z" fill="#8E90FF"/>
<path d="M63.4524 23.1281C63.519 24.344 63.409 25.5251 62.7663 26.6078C61.7299 28.3564 60.1985 29.1322 58.1836 28.9933C56.2266 28.8601 54.8052 27.925 54.0727 26.0954C53.3142 24.1992 53.2766 22.2219 53.9106 20.3055C54.727 17.8332 56.794 16.6462 59.3068 17.0254C61.6431 17.3757 63.2787 19.2083 63.4466 21.6864C63.4785 22.164 63.4524 22.6475 63.4524 23.1281ZM61.148 23.0007C61.0554 22.3378 61.0091 21.6632 60.8643 21.0118C60.5806 19.7351 59.7932 18.9448 58.4441 18.9853C57.1646 19.0259 56.4553 19.8481 56.1803 21.0437C55.8618 22.4246 55.8589 23.82 56.2497 25.1835C56.5537 26.246 57.2485 26.9234 58.4123 26.99C59.5819 27.0566 60.3172 26.4659 60.737 25.418C61.0467 24.6421 61.1075 23.8316 61.1509 22.9978L61.148 23.0007Z" fill="#8E90FF"/>
<path d="M38.6338 28.9964C36.7868 29.005 35.2062 28.4521 34.2856 26.7267C34.0482 26.2837 33.5155 25.5195 34.2711 25.2706C34.9138 25.0563 36.011 24.6887 36.4047 25.6932C36.9345 27.0568 37.9593 27.1146 39.1028 27.0278C39.7657 26.9785 40.3476 26.6746 40.4692 25.9566C40.5908 25.2474 40.1768 24.7379 39.566 24.4687C38.5991 24.0431 37.5858 23.7275 36.616 23.3078C35.568 22.8533 34.7459 22.1584 34.3811 21.0062C34.1119 20.1493 34.2827 19.3706 34.743 18.6671C35.7012 17.2023 37.2384 16.9359 38.8075 16.9706C40.3505 17.0054 41.7748 17.4657 42.542 18.9826C42.7794 19.4516 43.2976 20.2072 42.5941 20.4591C41.9688 20.682 40.9527 21.0584 40.4547 20.0393C39.9365 18.9827 39.068 18.7887 38.0432 18.9508C37.3861 19.055 36.8505 19.3677 36.7781 20.1233C36.7115 20.8181 37.1487 21.1915 37.7132 21.4231C38.7351 21.8458 39.7947 22.1816 40.7935 22.6477C42.102 23.2585 42.9444 24.2399 42.9184 25.7887C42.8865 27.847 41.3493 29.0022 38.6338 28.9993V28.9964Z" fill="#8E90FF"/>
<path d="M44.6013 22.9742C44.6013 21.3849 44.6274 19.7985 44.5898 18.2091C44.5724 17.4535 44.7345 17.0598 45.6146 17.083C47.5861 17.1351 49.5633 17.1264 51.5348 17.083C52.3801 17.0656 52.4322 17.5201 52.4496 18.1744C52.467 18.8576 52.2383 19.1326 51.5406 19.1095C50.4347 19.0747 49.3173 19.1876 48.223 19.0805C46.9578 18.956 47.0013 19.671 46.9578 20.5714C46.9086 21.6136 47.3139 21.935 48.2953 21.8481C49.0596 21.7815 49.8355 21.8481 50.6055 21.8162C51.3206 21.7844 51.6419 22.0247 51.6419 22.8035C51.6419 23.5938 51.3061 23.8051 50.591 23.7617C49.9194 23.7211 49.2362 23.8196 48.5704 23.7356C47.2879 23.5706 46.9463 24.0773 46.9347 25.3395C46.9231 26.6248 47.2966 27.0736 48.5704 26.9317C49.4736 26.8304 50.3971 26.9317 51.3119 26.8998C52.0298 26.8738 52.4844 26.9693 52.4786 27.8899C52.4728 28.77 52.0935 28.9292 51.3379 28.9147C49.462 28.8829 47.5832 28.8655 45.7072 28.9263C44.7866 28.9553 44.5579 28.5934 44.584 27.7422C44.6361 26.1558 44.5984 24.5665 44.5984 22.9771L44.6013 22.9742Z" fill="#8E90FF"/>
</svg>
