<svg width="115" height="66" viewBox="0 0 115 66" fill="none" xmlns="http://www.w3.org/2000/svg">
<path d="M18.0943 57.0112H0C0.135397 42.3364 5.13646 29.6753 14.7151 18.7715C19.0017 23.0956 23.2048 27.3332 27.503 31.6659C21.4475 38.8564 18.2124 47.3144 18.0943 57.0083V57.0112Z" fill="#8E90FF"/>
<path d="M86.582 31.5245C90.9003 27.2062 95.1005 23.006 99.4102 18.6963C109.061 29.6145 114.039 42.2872 114.218 56.9792H96.1232C95.9994 47.3862 92.8132 38.9051 86.5849 31.5245H86.582Z" fill="#8E90FF"/>
<path d="M83.5859 28.4421C76.7872 22.2397 68.6259 18.7597 59.1855 18.1173V0C73.5953 0.705795 85.9683 5.93442 96.4602 15.6773C92.1332 19.9668 87.8955 24.167 83.5859 28.4392V28.4421Z" fill="#8E90FF"/>
<path d="M17.7598 15.6715C28.1882 5.96322 40.5699 0.711556 55.0229 0V18.1173C45.6228 18.7539 37.4442 22.2167 30.5303 28.5343C26.2668 24.239 22.0579 20.0013 17.7626 15.6715H17.7598Z" fill="#8E90FF"/>
<path d="M84.4504 30.8902C81.4487 34.7965 78.4497 38.7057 75.448 42.6121C72.3511 46.6395 69.2283 50.6495 66.1804 54.7143C65.7771 55.253 65.5524 56.1058 65.61 56.7799C65.9961 61.2595 62.6284 65.4251 58.1027 65.9437C53.5366 66.468 49.2817 63.2127 48.7199 58.7647C47.994 53.0176 52.2143 48.6359 58.0854 48.9672C58.7681 49.0046 59.6036 48.7828 60.1509 48.3823C67.8167 42.7878 75.4451 37.1415 83.0849 31.5096C83.4681 31.2273 83.8628 30.9651 84.2517 30.6914C84.3179 30.7577 84.3871 30.8239 84.4533 30.8902H84.4504ZM61.1707 57.4367C61.1707 55.1897 59.2953 53.3114 57.0771 53.3373C54.8416 53.3632 53.0238 55.2358 53.0382 57.4943C53.0527 59.7126 54.8272 61.5534 56.9849 61.5937C59.2953 61.6369 61.1707 59.7731 61.1679 57.4367H61.1707Z" fill="#8E90FF"/>
</svg>
